<svg xmlns="http://www.w3.org/2000/svg" width="865.76" height="682.89" viewBox="0 0 865.76 682.89"><path d="M753.66,324.2s-11.2-.81-10.17,24.3,3.6,38.48,3.6,38.48-.33,5.51-4.64,4.48S730.05,384.94,726,389s-2.69,10.64,2.82,18.23,17,24.66,18,26.17,1.37,4.37-1.64,4.14-23.68-7.26-26.41,2.75,16.09,28.6,18.1,30.68,2.13,3.38,1.38,4.63-7.52-1.75-13.48-3.5-13.15-2.76-14.24,3.17,7.19,23.14,38.24,41.33L763.75,524l14.14-9c29.07-21.14,35.6-39.13,33.92-44.89s-8.75-4.05-14.49-1.72-12.11,6-13.06,4.84-1-2.5.84-4.76,18.66-22.67,14.95-32.33-23.53-.65-26.55-.07-2.89-2.3-2-3.91,10.57-19.77,15.29-27.87,5.51-14.66,1-18.42-11.91,2.58-16.09,4.14-5.07-4-5.07-4,1.22-13.56-.27-38.64-12.81-23.06-12.81-23.06" fill="#ebebeb"/><path d="M754.54,346.73v.52c0,.35.07.88.13,1.54.09,1.38.22,3.38.4,5.93.34,5.15.78,12.6,1.29,21.82,1,18.42,2.22,43.89,3.45,72s2.36,53.6,3.27,72c.47,9.19.86,16.64,1.12,21.82q.18,3.86.29,5.94a9.36,9.36,0,0,0,.07,1.54,4.69,4.69,0,0,1,0,.53v-.53a7.58,7.58,0,0,0-.13-1.54c-.09-1.38-.23-3.37-.4-5.92-.34-5.16-.78-12.61-1.29-21.82-1-18.42-2.22-43.89-3.44-72s-2.37-53.58-3.3-72c-.45-9.19-.84-16.64-1.1-21.82-.12-2.55-.23-4.54-.29-5.94a9.49,9.49,0,0,0-.07-1.54A4.51,4.51,0,0,1,754.54,346.73Z" fill="#e0e0e0"/><path d="M737.06,397a4.58,4.58,0,0,1,.92.78c.58.52,1.38,1.3,2.37,2.28,2,1.94,4.63,4.71,7.5,7.83l7.3,8,2.23,2.41a5.61,5.61,0,0,1,.77.92,4.24,4.24,0,0,1-.93-.76c-.57-.52-1.38-1.31-2.36-2.28-2-2-4.56-4.78-7.43-7.9l-7.37-7.93-2.23-2.4A5,5,0,0,1,737.06,397Z" fill="#e0e0e0"/><path d="M759.64,418.75c-.11-.11,5.35-5.84,12.19-12.79s12.5-12.48,12.62-12.39-5.36,5.82-12.2,12.77S759.75,418.86,759.64,418.75Z" fill="#e0e0e0"/><path d="M759.57,462a5.16,5.16,0,0,1,1-.66l2.92-1.65c2.46-1.38,5.87-3.31,9.53-5.51s6.89-4.4,9.3-6l2.76-1.86a5.12,5.12,0,0,1,1.06-.63,4.85,4.85,0,0,1-.94.81c-.62.49-1.53,1.19-2.69,2-2.28,1.66-5.51,3.88-9.21,6.13s-7.12,4.14-9.65,5.43c-1.26.65-2.28,1.16-3,1.49A5,5,0,0,1,759.57,462Z" fill="#e0e0e0"/><path d="M734.83,446.88a4.83,4.83,0,0,1,1,.48c.65.35,1.57.87,2.76,1.5,2.27,1.3,5.38,3.12,8.81,5.16s6.52,3.91,8.75,5.3L758.8,461a5,5,0,0,1,.91.68,4.21,4.21,0,0,1-1-.48l-2.76-1.51c-2.27-1.29-5.4-3.11-8.83-5.15s-6.52-3.91-8.73-5.29c-1.12-.69-2-1.27-2.62-1.67A5,5,0,0,1,734.83,446.88Z" fill="#e0e0e0"/><path d="M730,485.08a7.53,7.53,0,0,1,1.31.63l3.49,1.93c2.92,1.64,6.89,3.94,11.35,6.51s8.42,4.93,11.28,6.66l3.39,2.07a7.17,7.17,0,0,1,1.2.84,8.69,8.69,0,0,1-1.38-.65l-3.47-1.91c-2.92-1.64-6.89-3.94-11.36-6.52s-8.41-4.92-11.27-6.65l-3.41-2.12A6.74,6.74,0,0,1,730,485.08Z" fill="#e0e0e0"/><path d="M761.29,503.06a8.82,8.82,0,0,1,1.31-.88l3.63-2.21c3.07-1.87,7.28-4.46,11.87-7.45s8.68-5.79,11.61-7.84l3.5-2.42a7.48,7.48,0,0,1,1.38-.84,14.67,14.67,0,0,1-1.2,1c-.78.62-1.94,1.5-3.39,2.57-2.88,2.14-6.89,5-11.53,8s-8.86,5.51-12,7.32c-1.56.89-2.84,1.6-3.72,2.05A10,10,0,0,1,761.29,503.06Z" fill="#e0e0e0"/><polygon points="783.75 528.83 742.42 528.83 755.91 630.93 770.26 630.93 783.75 528.83" fill="#e0e0e0"/><path d="M744.57,541.38s0,.14.22.36a2.72,2.72,0,0,0,1,.72,5,5,0,0,0,4.37-.54c1.67-.92,3.13-2.75,5.36-3.53a11.85,11.85,0,0,1,7.6.16,32.08,32.08,0,0,1,7.07,3.43,49.7,49.7,0,0,0,5.76,3.08,16.5,16.5,0,0,0,4.24,1.23,9.67,9.67,0,0,0,1.2.08h.43a20.83,20.83,0,0,1-5.68-1.71,55.52,55.52,0,0,1-5.62-3.18,31.56,31.56,0,0,0-7.21-3.54,12.09,12.09,0,0,0-8-.08,10.22,10.22,0,0,0-3,1.86,22,22,0,0,1-2.37,1.83,4.86,4.86,0,0,1-4,.7A4.11,4.11,0,0,1,744.57,541.38Z" fill="#f5f5f5"/><path d="M746.07,560.26s.33-.43,1-1.11a9.46,9.46,0,0,1,3.3-2.09,14.83,14.83,0,0,1,5.82-.94,60.34,60.34,0,0,1,7.19,1,25.22,25.22,0,0,0,7.36.3,20.68,20.68,0,0,0,5.8-1.65,19.42,19.42,0,0,0,3.48-2.08,5.5,5.5,0,0,0,1.1-1,35.83,35.83,0,0,1-4.78,2.64,21.73,21.73,0,0,1-5.67,1.47,25.42,25.42,0,0,1-7.18-.36,57.68,57.68,0,0,0-7.29-.94,14.91,14.91,0,0,0-5.94,1,8.75,8.75,0,0,0-3.32,2.36,5.92,5.92,0,0,0-.62.92C746.11,560.05,746.06,560.17,746.07,560.26Z" fill="#f5f5f5"/><path d="M779.06,570.24a3.22,3.22,0,0,0-1.14-.57,11.77,11.77,0,0,0-3.42-.75,22,22,0,0,0-5.18.31c-1.92.3-4,.84-6.15,1.29a25.59,25.59,0,0,1-6.16.7,13.29,13.29,0,0,1-4.89-1.06,11.69,11.69,0,0,1-3.71-2.75,3.51,3.51,0,0,0,.71,1.07,8.9,8.9,0,0,0,2.75,2.12,13.45,13.45,0,0,0,5.06,1.24,24,24,0,0,0,6.32-.66c2.19-.45,4.24-1,6.13-1.38a23.67,23.67,0,0,1,5-.42A19.69,19.69,0,0,1,779.06,570.24Z" fill="#f5f5f5"/><path d="M749.72,584.41a6.76,6.76,0,0,1,4-.4,18.49,18.49,0,0,1,4.14,1.57,16.14,16.14,0,0,0,15.34-.8,14.11,14.11,0,0,0,2.46-1.89,3.83,3.83,0,0,0,.73-.88,36.57,36.57,0,0,1-3.43,2.36,16.9,16.9,0,0,1-9.65,2c-3.91-.22-6.89-2.56-9.64-2.86a6,6,0,0,0-3.11.26A2.19,2.19,0,0,0,749.72,584.41Z" fill="#f5f5f5"/><path d="M752,604a8,8,0,0,0,3.44-.69c2.07-.69,4.64-2.29,7.65-3.48a12.22,12.22,0,0,1,4.39-.91,8,8,0,0,1,3.53.8,7.59,7.59,0,0,1,2.55,2.2,1.66,1.66,0,0,0-.39-.87,5.53,5.53,0,0,0-1.94-1.75,8.08,8.08,0,0,0-3.75-1,12.24,12.24,0,0,0-4.63.91c-3.11,1.24-5.61,2.88-7.59,3.66S752,603.9,752,604Z" fill="#f5f5f5"/><path d="M754.06,613.13a9.33,9.33,0,0,0,2.62.84,47.85,47.85,0,0,0,13.17,1.29,9.8,9.8,0,0,0,2.75-.31c0-.21-4.13,0-9.3-.54S754.1,612.92,754.06,613.13Z" fill="#f5f5f5"/><polygon points="808.53 38.52 808.53 148.31 666.72 148.31 661.61 39.29 808.53 38.52" fill="#e0e0e0"/><rect x="661.61" y="39.16" width="141.81" height="109.15" fill="#fff"/><path d="M804,148.85H661.07V38.64H804Zm-141.81-1.08H802.88V39.7H662.14Z" fill="#e0e0e0"/><rect x="676.97" y="50.38" width="111.09" height="83.57" fill="#fff"/><path d="M788.06,50.38H779.9l-22.78.18L677,50.68l.26-.25V134h0l-.29-.29H788l-.24.24c0-25.25.1-46.12.13-60.68v-.14c0,14.59.07,35.5.12,60.82v.23H676.75v-.27h0V50.07H677l80.32.13h30.77Z" fill="#e0e0e0"/><path d="M661.59,38.9a13.48,13.48,0,0,1,2.4,1.48c1.45,1,3.42,2.34,5.51,3.91s4,3.07,5.36,4.13a12.09,12.09,0,0,1,2.06,1.92,16.68,16.68,0,0,1-2.31-1.6l-5.51-4-5.44-4A14,14,0,0,1,661.59,38.9Z" fill="#e0e0e0"/><path d="M803.49,39.15a79.77,79.77,0,0,1-7.58,5.9,82.51,82.51,0,0,1-7.85,5.38,81.44,81.44,0,0,1,7.5-5.84A79.45,79.45,0,0,1,803.49,39.15Z" fill="#e0e0e0"/><line x1="803.42" y1="148.31" x2="787.49" y2="133.94" fill="none"/><path d="M787.49,133.94a104.17,104.17,0,0,1,8.16,7,106.17,106.17,0,0,1,7.84,7.46,102.64,102.64,0,0,1-8.27-7A103.82,103.82,0,0,1,787.49,133.94Z" fill="#e0e0e0"/><path d="M661.59,148.37A96.92,96.92,0,0,1,669,141.3a93.11,93.11,0,0,1,7.8-6.65,98.76,98.76,0,0,1-7.41,7.06A95.15,95.15,0,0,1,661.59,148.37Z" fill="#e0e0e0"/><path d="M759.31,91.4A13.41,13.41,0,1,1,749,75.49,13.41,13.41,0,0,1,759.31,91.4Z" fill="#f5f5f5"/><path d="M741.84,101.35A21.89,21.89,0,0,1,743,97.64a22.3,22.3,0,0,0,1.22-9,12.53,12.53,0,0,0-3.92-7.91,22.67,22.67,0,0,0-3.18-2,5.65,5.65,0,0,1,3.65,1.49,12.27,12.27,0,0,1,4.49,8.36,19.72,19.72,0,0,1-1.57,9.38A11,11,0,0,1,741.84,101.35Z" fill="#e0e0e0"/><path d="M759.14,87c0,.31-3.61-1-7.8.27s-6.47,4.21-6.69,4,.3-.92,1.38-2A11.85,11.85,0,0,1,756.92,86C758.38,86.37,759.2,86.87,759.14,87Z" fill="#e0e0e0"/><path d="M753.09,86.37c-.16,0-.09-.93-.58-2.26a6,6,0,0,0-7.57-3.88,5.41,5.41,0,0,0-1.13.5c-1.24.63-1.82,1.37-2,1.26s.28-1,1.57-1.9a6.32,6.32,0,0,1,9.8,3.82A3.24,3.24,0,0,1,753.09,86.37Z" fill="#e0e0e0"/><path d="M748.82,87.75c-.3,0-.08-1.9-.62-4s-1.53-3.69-1.28-3.88,1.72,1.22,2.3,3.65S749.07,87.75,748.82,87.75Z" fill="#e0e0e0"/><path d="M748.7,83.52c0,.31-1.17.37-2.28,1s-2,1.38-2.25,1.15.37-1.29,1.77-2.07S748.75,83.27,748.7,83.52Z" fill="#e0e0e0"/><path d="M727.25,89.8a10.18,10.18,0,1,1-14.35,1.25h0A10.19,10.19,0,0,1,727.25,89.8Z" fill="#f5f5f5"/><path d="M727.72,105.05a17.11,17.11,0,0,1-2.07-2.1,16.77,16.77,0,0,0-5.61-4,9.41,9.41,0,0,0-6.69-.19,18.49,18.49,0,0,0-2.51,1.37,4.52,4.52,0,0,1,2.3-1.91,9.3,9.3,0,0,1,7.21,0,15,15,0,0,1,5.71,4.39A8.56,8.56,0,0,1,727.72,105.05Z" fill="#e0e0e0"/><path d="M724.23,88.34a16.27,16.27,0,0,0-2.6,5.32,15.68,15.68,0,0,0,.29,5.91c-.1,0-.51-.54-.87-1.62a9.07,9.07,0,0,1,1.75-8.45C723.58,88.63,724.16,88.27,724.23,88.34Z" fill="#e0e0e0"/><path d="M721.61,92.15c-.06.11-.66-.27-1.7-.42a4.59,4.59,0,0,0-5.39,4.62c0,1.06.28,1.71.15,1.76s-.56-.54-.7-1.73a4.91,4.91,0,0,1,1.62-4.22,5,5,0,0,1,4.43-1C721.17,91.51,721.67,92.09,721.61,92.15Z" fill="#e0e0e0"/><path d="M721,95.52c-.16.18-1.3-.62-2.92-1s-3-.31-3.06-.53a3.78,3.78,0,0,1,3.25-.24C720.14,94.18,721.19,95.38,721,95.52Z" fill="#e0e0e0"/><path d="M718.18,94.1c.21.13-.16.91-.18,1.86s.2,1.86,0,1.93-.71-.72-.74-1.94S718.07,94,718.18,94.1Z" fill="#e0e0e0"/><path d="M727.72,86.37c-3.6-2.34-5.8-6.51-7.24-10.56a19.91,19.91,0,0,1-.16-12.65A16.52,16.52,0,0,1,729,72.4c1.5,4.07.62,10.06-1.25,14" fill="#ebebeb"/><path d="M723.5,69.73a144.07,144.07,0,0,1,3.86,16" fill="#fff"/><path d="M727.36,85.71a11,11,0,0,1-.65-2.33c-.38-1.66-.84-3.55-1.38-5.64s-1-4-1.37-5.64a10.09,10.09,0,0,1-.49-2.37,10.35,10.35,0,0,1,.87,2.26c.46,1.38,1,3.39,1.56,5.61s.94,4.24,1.17,5.7A10.32,10.32,0,0,1,727.36,85.71Z" fill="#e0e0e0"/><path d="M736.78,104.56c4.2-.88,8.71.49,12.59,2.35a19.84,19.84,0,0,1,9,8.83,16.53,16.53,0,0,1-12.64-.42c-3.94-1.82-7.55-6.67-9-10.76" fill="#ebebeb"/><path d="M751.45,113.32a145.49,145.49,0,0,1-14-8.57" fill="#fff"/><path d="M737.43,104.75a11,11,0,0,1,2.11,1.19l4.93,3,5,3a10.64,10.64,0,0,1,2,1.37,9.82,9.82,0,0,1-2.2-1c-1.38-.68-3.13-1.68-5.07-2.87s-3.67-2.34-4.88-3.21A10.38,10.38,0,0,1,737.43,104.75Z" fill="#e0e0e0"/><path d="M732.72,106.56a12.13,12.13,0,0,1-.68,7.61,11.84,11.84,0,0,1-4.71,5.91,9.76,9.76,0,0,1-.49-7.55,12,12,0,0,1,5.88-6" fill="#ebebeb"/><path d="M728.35,115.8a86.72,86.72,0,0,1,4.28-8.84" fill="#fff"/><path d="M732.64,107a29.42,29.42,0,0,1-2,4.47,28.74,28.74,0,0,1-2.27,4.37,18.28,18.28,0,0,1,1.76-4.63A16.54,16.54,0,0,1,732.64,107Z" fill="#e0e0e0"/><rect x="105.81" y="325.01" width="152.74" height="288.72" fill="#e0e0e0"/><rect x="60.47" y="325.01" width="152.74" height="288.72" fill="#f5f5f5"/><path d="M202,384.44H70.87V338.68H202ZM72.47,382.83H200.34V340.29H72.48Z" fill="#e0e0e0"/><path d="M112.43,339.49h49.76v2.3a6.82,6.82,0,0,1-6.82,6.82H119.24a6.82,6.82,0,0,1-6.82-6.82h0v-2.3Z" fill="#ebebeb"/><path d="M202,442.57H70.87V396.81H202ZM72.47,441H200.34V398.42H72.48Z" fill="#e0e0e0"/><path d="M112.43,397.62h49.76v2.3a6.82,6.82,0,0,1-6.82,6.82H119.24a6.82,6.82,0,0,1-6.82-6.82h0v-2.3Z" fill="#ebebeb"/><path d="M202,500.71H70.87V455H202ZM72.47,499.1H200.34V456.56H72.48Z" fill="#e0e0e0"/><path d="M112.43,455.76h49.76v2.3a6.82,6.82,0,0,1-6.82,6.82H119.24a6.82,6.82,0,0,1-6.82-6.82h0v-2.3Z" fill="#ebebeb"/><path d="M202,558.87H70.87V513.08H202ZM72.47,557.26H200.34V514.69H72.48Z" fill="#e0e0e0"/><path d="M112.43,513.89h49.76v2.28a6.82,6.82,0,0,1-6.82,6.82H119.25a6.83,6.83,0,0,1-6.82-6.82h0v-2.28Z" fill="#ebebeb"/><rect x="53.71" y="314.21" width="165.89" height="14.38" fill="#ebebeb"/><rect x="219.6" y="314.21" width="49.88" height="14.38" fill="#e0e0e0"/><rect x="60.47" y="613.73" width="8.03" height="14.75" fill="#e0e0e0"/><rect x="110.06" y="613.73" width="8.03" height="14.75" fill="#e0e0e0"/><rect x="200.66" y="613.73" width="8.03" height="14.75" fill="#e0e0e0"/><rect x="245.95" y="613.73" width="8.03" height="14.75" fill="#e0e0e0"/><polygon points="175.78 276.06 191.22 316.62 181.62 316.58 173.92 291.64 175.78 276.06" fill="#e0e0e0"/><polygon points="123 238.58 117.69 316.3 172.52 317.47 178.7 238.58 123 238.58" fill="#ebebeb"/><polygon points="128.48 244.83 124.06 309.52 164.84 311.5 170.53 244.45 128.48 244.83" fill="#fafafa"/><polygon points="137.44 253.98 134.13 299.45 156.61 299.45 160.58 253.98 137.44 253.98" fill="#e0e0e0"/><rect x="99.41" y="41.58" width="98.29" height="162.7" fill="#e0e0e0"/><rect x="96.15" y="41.58" width="98.29" height="162.7" fill="#ebebeb"/><rect x="100.34" y="44.88" width="89.92" height="156.1" fill="#fafafa"/><rect x="117.45" y="65.16" width="55.3" height="115.53" fill="#ebebeb"/><path d="M117.45,139.81C117.32,129,127,118.5,137.72,117c5.09-.72,10.5.3,15.27-1.66,8.5-3.55,11.2-14.78,19.76-18.13l.39,83.5H117.5Z" fill="#e0e0e0"/><path d="M605.16,459,594.37,590.29,592.58,612H582.3c-.88-7.11-5-13.64-9.49-16.93a30.81,30.81,0,0,0-10-4.82,32.47,32.47,0,0,0-8.63-1.16H526.74a31.07,31.07,0,0,0-4.2.27,36.38,36.38,0,0,0-4.4.89,28.45,28.45,0,0,0-20.29,20.11h-9L488,590.29,482.22,459Z" fill="#e1e1e2"/><path d="M594.37,590.29,592.58,612H582.3c-.88-7.11-5-13.64-9.49-16.93a30.81,30.81,0,0,0-10-4.82Z" fill="#9ea0a3"/><rect x="472.66" y="453.3" width="140.73" height="11.46" rx="4.33" fill="#9ea0a3"/><path d="M488,590.29h30.18a28.45,28.45,0,0,0-20.29,20.11h-9Z" fill="#9ea0a3"/><polygon points="497.9 540.97 499.54 581.88 584.17 582.81 587.53 540.97 497.9 540.97" fill="#9ea0a3"/><polygon points="495.8 486.96 497.2 531.15 583 532.08 585.43 486.96 495.8 486.96" fill="#9ea0a3"/><circle cx="544.66" cy="510.81" r="3.97" fill="#e1e1e2"/><circle cx="542.79" cy="563.88" r="3.97" fill="#e1e1e2"/><path d="M591.65,621.43,574.55,635a1.53,1.53,0,0,0,.89,2.72l26.77,1,2.3-6,2.1,6.08h6.15s2-20.81-1.71-19.64l-2-3.74-11.17,2.8Z" fill="#7C4ABC"/><path d="M701.1,644l-10.72-5.22a3.42,3.42,0,0,1-1.91-3.47l1.83-16.29,11.37-1.63,10.21,15.79a3.43,3.43,0,0,1-.57,4.39l-6.39,5.87A3.45,3.45,0,0,1,701.1,644Z" fill="#7C4ABC"/><path d="M192.48,120.4H424.55a14.68,14.68,0,0,1,14.68,14.68V621a9.23,9.23,0,0,1-9.23,9.23H187a9.23,9.23,0,0,1-9.23-9.23v-486a14.68,14.68,0,0,1,14.68-14.68Z" fill="#2e3135"/><path d="M214.72,120.4H433.34a20.26,20.26,0,0,1,20.26,20.26V617.13a13.14,13.14,0,0,1-13.14,13.14H207.6a13.14,13.14,0,0,1-13.14-13.14V140.66a20.26,20.26,0,0,1,20.26-20.26Z" fill="#3f4347"/><rect x="292.65" y="127.41" width="52.83" height="6.08" rx="2.29" fill="#2e3135"/><rect x="209.66" y="140.97" width="229.57" height="371.94" fill="#ebebeb"/><path d="M209.66,512.91H439.23a0,0,0,0,1,0,0v46.28A51.21,51.21,0,0,1,388,610.4H249.89a40.24,40.24,0,0,1-40.24-40.24V512.91A0,0,0,0,1,209.66,512.91Z" opacity="0.2"/><rect x="209.66" y="512.91" width="229.57" height="12.16" fill="#2e3135"/><circle cx="253.96" cy="565.63" r="18.59" fill="#7C4ABC"/><circle cx="395.86" cy="565.63" r="18.59" fill="#7C4ABC"/><circle cx="325.96" cy="563.06" r="26.53" fill="#7C4ABC"/><path d="M254,578a.51.51,0,0,1-.51-.51h0v-5.86a.51.51,0,0,1,1,0v5.86A.51.51,0,0,1,254,578Z" fill="#fff"/><path d="M257.17,578h-6.42a.51.51,0,1,1,0-1h6.42a.51.51,0,0,1,0,1Z" fill="#fff"/><path d="M258.09,557.49V566a4.14,4.14,0,1,1-8.26.49,4,4,0,0,1,0-.49v-8.53a4.13,4.13,0,1,1,8.25-.2A.67.67,0,0,1,258.09,557.49Z" fill="#fff"/><path d="M254,572.12a6,6,0,0,1-6-6v-3.62a.5.5,0,0,1,.41-.59.51.51,0,0,1,.58.42.48.48,0,0,1,0,.17v3.59a5,5,0,0,0,5,5h.19A5.14,5.14,0,0,0,259,566v-3.42a.5.5,0,0,1,.5-.51.5.5,0,0,1,.5.5h0V566a6.09,6.09,0,0,1-5.75,6.17Z" fill="#fff"/><path d="M336.71,560.37v5.39a1.5,1.5,0,0,1-1.56,1.43,1.35,1.35,0,0,1-.29-.05l-2.41-.6-1.17-.28v-6.43l3.2-.82.43-.11a1.5,1.5,0,0,1,1.77,1.16A1.63,1.63,0,0,1,336.71,560.37Z" fill="#fff"/><rect x="315.21" y="556.44" width="14.77" height="13.23" rx="2.72" fill="#fff"/><path d="M395.63,557.68c-10,.08-12,7.48-12.34,11.22a1.4,1.4,0,0,0,1.85,1.47l5.54-1.84a1.41,1.41,0,0,0,.76-2.07l-.5-.82a2,2,0,0,1,.47-2.56,7.1,7.1,0,0,1,5.79-1.42,5.26,5.26,0,0,1,3.83,1.81,1.38,1.38,0,0,1,.11,1.69l-.63.94a1.13,1.13,0,0,0,.48,1.67l5.91,2.62a1.13,1.13,0,0,0,1.59-.95C408.76,565.9,408.05,557.59,395.63,557.68Z" fill="#fff"/><rect x="183.24" y="240.8" width="8.42" height="54.24" rx="3.18" opacity="0.2"/><rect x="183.24" y="304.38" width="8.42" height="54.24" rx="3.18" opacity="0.2"/><path d="M303.75,272.68l-37.05,13.7s-21.51,4.91-32,26.19c0,0-23.61,29.69-40.21,112.33,0,0-9.44,31.48,10.11,52a32.19,32.19,0,0,0,38.36,6.46l.62-.34-2.81,29.92H395.91s-.4-55-.05-68.16c0,0,12.51,10.65,32.38-2.2l80.89-47.23-9.59-48.62-69,33.19L405.09,325s-10.75-39-61.71-46.29Z" fill="#7C4ABC"/><polygon points="239.34 412.15 258.44 358.62 256.17 392.8 300.13 381.53 239.34 412.15" opacity="0.2"/><path d="M314.86,428.52,243.55,483l-2.81,29.92H346.52s-73.74-18-61.82-37.63C284.7,475.28,296.39,447.22,314.86,428.52Z" opacity="0.2"/><path d="M323.85,416.6a55.48,55.48,0,0,0,12.9-6.86l5.46-3.9c8.09-5.75,7.05-11.23,6.14-13.45a2.38,2.38,0,0,1,.17-2.11c1.34-2.28,1.4-4,1.05-5.27a3.58,3.58,0,0,0-2.59-2.43c-2-.51-.46-2.55-.46-2.55,3.62-5.48,0-9.1,0-9.1-1.55-.66-1.46-2.21-1-3.53a7.61,7.61,0,0,1,1.85-2.95l15.12-15.1a3,3,0,0,0,.18-4.07h0a3,3,0,0,0-4-.57L335,360.63a10,10,0,0,1-5.57,1.7H320a8.27,8.27,0,0,0-7.29,4.37L302.7,385.5s12.16,4.91,12.39,34.37Z" fill="#f9b499"/><path d="M302.7,385.5l7.71-14.43s14.72,20.76,13.44,45.53l-8.76,3.27S316.49,393.92,302.7,385.5Z" fill="#f7a48b"/><path d="M573,352.49c-1.54,2.07-6.51,4.6-21.44,4.94a.9.9,0,0,0-.57.25.81.81,0,0,0-.23.55.86.86,0,0,0,.87.86H568a.69.69,0,0,1,.69.78c-.2,1.54-1.21,4.88-6.22,5.06H549a1.16,1.16,0,0,0-1.16,1.16.76.76,0,0,0,0,.15,1.17,1.17,0,0,0,1.16,1h11a1.47,1.47,0,0,1,1.25,2.25c-1.35,2.14-4.26,5-10,4.53l-8.21,0a.67.67,0,0,0-.43.16.72.72,0,0,0-.22.4.66.66,0,0,0,.58.76l8.55,1a1.51,1.51,0,0,1,1.16,2.24,8.05,8.05,0,0,1-6.11,4.3l-23.29.22a2.35,2.35,0,0,0-1.88,1c-4.3,6-13.22,6.16-13.22,6.16l-7.5-38.06h0l5.29-6.1a4.85,4.85,0,0,1,3.91-1.65l18.44,1a2.16,2.16,0,0,1,0,2.78l43.3,1.37A1.77,1.77,0,0,1,573,352.49Z" fill="#f9b499"/><path d="M509.85,344.49c-4.66,1.77-6.41,21.56-6.41,21.56l-2.79-13.81,5.29-6.1A4.85,4.85,0,0,1,509.85,344.49Z" fill="#f7a48b"/><path d="M505.25,375.66s9.25-10,9.25-15.64c0,0,.47-6.78,5.15-6.78,0,0,8.18-.75,8.64-4.93l5.36.17s-12.37,8.27-12.84,15.75C520.81,364.23,519.84,376.33,505.25,375.66Z" fill="#f7a48b"/><path d="M593.19,329.49S577.59,365.63,579,424.9c0,0-2.09,104.38,11,180.12h24.37l9.53-193.1,58.91,190.76,22.45.47S671.6,372,659.21,341.79L624.8,326.94Z" fill="#2f2e41"/><path d="M597.86,332.21s-20,38.1-9.25,161.77l5.61,95.15" fill="none" stroke="#fff" stroke-miterlimit="10"/><line x1="615.16" y1="589.13" x2="587.53" y2="589.13" fill="none" stroke="#fff" stroke-miterlimit="10"/><line x1="645.18" y1="344.51" x2="692.52" y2="589.13" fill="none" stroke="#fff" stroke-miterlimit="10"/><line x1="678.63" y1="589.13" x2="703.2" y2="589.13" fill="none" stroke="#fff" stroke-miterlimit="10"/><path d="M591.65,605v16.41a11.25,11.25,0,0,1,5.38,3.7,5.61,5.61,0,0,0,5.51-.54,8.53,8.53,0,0,0,2.18-1.92c1-1.2,3.45-3.8,6.33-3.62l1.71-14Z" fill="#f9b499"/><path d="M685.32,602.74l5,16.31a8.84,8.84,0,0,0,7.25,4.21s4.44-.47,4.21-8.19v-12Z" fill="#f9b499"/><path d="M614.85,129.75H548.58a7.43,7.43,0,0,0-7.43,7.43v29.09a7.43,7.43,0,0,0,7.43,7.43h9.68l5,15.53a1.55,1.55,0,0,0,2.89.15l7-15.68h41.69a7.42,7.42,0,0,0,7.42-7.43V137.18A7.43,7.43,0,0,0,614.85,129.75Z" fill="#7C4ABC"/><circle cx="558.69" cy="151.73" r="5.14" fill="#fff"/><circle cx="580.9" cy="151.73" r="5.14" fill="#fff"/><circle cx="604.97" cy="151.73" r="5.14" fill="#fff"/><path d="M474.62,177.91H399.43a7.43,7.43,0,0,0-7.43,7.43v53.88a2,2,0,0,0,3.53,1.23L406.4,226.7h68.22a7.43,7.43,0,0,0,7.43-7.43V185.34A7.43,7.43,0,0,0,474.62,177.91Z" fill="#7C4ABC"/><rect x="180.2" y="240.8" width="8.42" height="54.24" rx="3.18" fill="#3f4347"/><rect x="180.2" y="304.38" width="8.42" height="54.24" rx="3.18" fill="#3f4347"/><path d="M305.27,250.15l-1.44,19.63A28.41,28.41,0,0,0,306,283.07c2.17,5.07,5.79,11.68,11.2,16.35a14.63,14.63,0,0,0,19.56-.28c4.09-3.85,7.68-10.21,6.58-20.47L342,255.52Z" fill="#f9b499"/><path d="M342,255.52l1.41,23.15s-25.49.93-38.11-28.52Z" fill="#f7a48b"/><ellipse cx="321.98" cy="216.51" rx="31.2" ry="49.48" transform="translate(-32.16 57.97) rotate(-9.8)" fill="#f9b499"/><path d="M281.7,219.94s-12.67-20.52-1.44-30.11c0,0-5.54-1-4.64-6.59,0,0,2.06-4.16,7.91-2.06,0,0-.47-6.54,1.4-8.41,0,0,1.17,5.84,3.51,6.54,0,0,22.44-30.39,63.35-11,0,0,6.55,1.64,1.87,15.43,0,0-3.22,8.58-5.58,11.31,0,0-3.09-6.73-4.71-9.25,0,0-10.51,11.44-41.37,6.68,0,0,7,24.51-1.54,28.69Z" fill="#2f2e41"/><circle cx="290.66" cy="226.89" r="11.34" fill="#f9b499"/><path d="M608.48,241.2s-22.68,3.1-26,19.23c0,0-9.12,26.42-11,38.58L537,285l-7.05,20.76L584.64,331l23.84,2.12v5.5s38.57,9.22,59.38,4.54c0,0,7.25-2.1,6.78-15.43,0,0,6.2-73.78-24.72-79.32L629.15,242Z" fill="#7C4ABC"/><polygon points="645.18 320.98 619.11 319.29 637.94 313.27 644.25 287.79 645.18 320.98" opacity="0.2"/><path d="M565.32,322.12s15.11-2.07,18.85-8.85c0,0-7.72-29.69,11.69-47.23,0,0-12.63,20.11-4.44,44.66L584.64,331Z" opacity="0.2"/><path d="M572.46,297.37l9,36.94a1.48,1.48,0,0,0,1.75,1.1L599.68,332a1.51,1.51,0,0,0,1.14-1.84l-9.74-37.18a1.48,1.48,0,0,0-1.78-1.07l-15.73,3.71A1.49,1.49,0,0,0,572.46,297.37Z" fill="#2e3135"/><path d="M517.77,279.84s-2.8,1.17-2.1,3.74a2.67,2.67,0,0,0-.93,3.27s-3.51,3.27,7.94,7.48l9.34,5.32L536.3,287S524.09,272.36,522,278l-11.52-8.31a1.47,1.47,0,0,0-2.14.48h0a1.45,1.45,0,0,0,.32,1.83Z" fill="#f9b499"/><path d="M514.74,286.85s7.69,2.43,4.43,6" fill="none" stroke="#f7a48b" stroke-miterlimit="10"/><path d="M515.67,283.58s9,1.33,3.9,6.27" fill="none" stroke="#f7a48b" stroke-miterlimit="10"/><path d="M522,278s-6.23,4-3.58,6.35c0,0,1,.89,3.81-.74,0,0,1.7-1.63,1.9.94" fill="none" stroke="#f7a48b" stroke-miterlimit="10"/><line x1="586.64" y1="325.01" x2="582.3" y2="323.09" fill="none" stroke="#f7a48b" stroke-miterlimit="10"/><path d="M574.1,296.91l9,36.93a1.49,1.49,0,0,0,1.76,1.1l16.44-3.46a1.49,1.49,0,0,0,1.13-1.84l-9.73-37.18a1.5,1.5,0,0,0-1.78-1.07l-15.73,3.71A1.49,1.49,0,0,0,574.1,296.91Z" fill="#3f4347"/><path d="M610.82,319.81l-2.34,13.34s-26.18-4.69-26.18-10.06c0,0-7.72-4.21,0-3.28,0,0-6.67-2.27-3.67-3.15a4.35,4.35,0,0,1,2.15,0l9.93,2.26s-6.08-3.28-8.31-5.75a1,1,0,0,1,.86-1.58c2,.29,6.24,1.51,15.4,5.69,0,0,1.91.39-.45-5.77,0,0,7.93,2,10.5,8.81Z" fill="#f9b499"/><circle cx="411.46" cy="202.3" r="5.71" fill="#fff"/><circle cx="436.12" cy="202.3" r="5.71" fill="#fff"/><circle cx="462.85" cy="202.3" r="5.71" fill="#fff"/><path d="M608.48,231.72v12a4,4,0,0,0,2.18,3.58c2.88,1.46,8.6,2.65,17-3.39a4.58,4.58,0,0,0,1.89-3.66l.2-19.08Z" fill="#f9b499"/><path d="M608.48,241.2v-9.48l17.42-7.17S623.79,240.79,608.48,241.2Z" fill="#f7a48b"/><ellipse cx="615.73" cy="209.35" rx="24.2" ry="16.6" transform="translate(357.18 806.1) rotate(-85.35)" fill="#f9b499"/><path d="M580,224.2s11-.24,12.86,5.14l3.62-3.65a1.75,1.75,0,0,1,2.68.25h0a1.73,1.73,0,0,1,.13,1.73L597,232.38,608.48,234v-2.3s-10.18-4.83-9.3-23.71c0,0,.27-6.47,2.8-11h3.3s1.56-7.37,5.54-7.84v8l21,4.43a34.77,34.77,0,0,1,.56,7.8l-2.62,11.78-.22,18.73h4.21v-2.7a.8.8,0,0,1,.79-.8h0a.8.8,0,0,1,.77.57c.45,1.5,1.88,5.49,4.52,6.44,0,0-.7-3.74,2.33-1.64,0,0,1.64,2.1,4.45-.47,0,0,3,4.44,5.84,0,0,0,1.87-2.8-4-7.71,0,0-8.65-5.85-5.85-11.46,0,0,7-7.48,4-16.83,0,0,11.1-1.6,7.33-13.15a9.06,9.06,0,0,0-5.45-5.78c-2.58-.94-6.05-.94-9.65,2.8,0,0-6.56-13-21.49-8.47,0,0-17-5.09-17.73,13.38,0,0,.7,23.14-9.82,23.85A10.26,10.26,0,0,0,580,224.2Z" fill="#2f2e41"/><circle cx="634.2" cy="216.02" r="6.78" fill="#f9b499"/></svg>