<svg width="50" height="50" viewBox="0 0 50 50" fill="none" xmlns="http://www.w3.org/2000/svg">
<path d="M9.85352 23.2783C8.1225 22.8915 6.0719 21.8598 4.76697 20.6992C3.62184 19.7191 0 16.3551 0 15.7619C0 15.1429 4.99334 13.6341 6.65779 13.3228C7.43037 13.1783 8.84154 12.8586 9.72037 12.7038L11.3182 12.4459L10.7324 10.7437C9.80026 8.11294 7.74966 2.40195 8.8948 0.673922C9.3209 0.0807179 15.0999 2.4646 17.2037 3.49626C20.7989 5.27588 23.4354 9.35093 23.4354 13.1681C23.4354 17.2431 20.4527 21.4213 16.5113 22.8657C14.7537 23.5105 11.7443 23.691 9.85352 23.2783ZM15.5792 19.8996C16.3249 19.5644 17.1505 19.1001 17.4434 18.868C17.976 18.4553 17.9494 18.4295 16.8309 17.4495C14.1411 15.0766 9.56058 14.9993 6.55126 17.2947C6.04527 17.6816 6.04527 17.6816 6.65779 18.3264C7.00399 18.6874 8.01597 19.3322 8.8948 19.7449C10.9987 20.7766 13.5553 20.8281 15.5792 19.8996ZM20.1864 13.3228C20.3728 10.0215 18.0825 6.87495 14.6205 5.68854C13.4487 5.27588 13.3955 5.32746 13.2357 6.7202C12.8895 9.68622 15.0732 13.1423 18.1092 14.4319C19.707 15.1282 20.1065 14.9219 20.1864 13.3228Z" fill="white"/>
<path d="M35.8761 30.3478C36.4001 31.9918 36.509 34.2272 36.1281 35.9029C35.8282 37.3542 34.6438 42.0769 34.1141 42.3748C33.5614 42.6857 29.7063 39.2619 28.5923 38.0244C28.0752 37.45 27.081 36.4288 26.5014 35.7705L25.4686 34.5619L24.243 35.9076C22.3622 38.0095 18.293 42.5952 16.175 42.5041C15.4313 42.4452 14.6572 36.4083 14.5217 34.1282C14.3049 30.2236 16.6191 25.9689 20.0273 24.0517C23.6658 22.0049 28.8945 22.4042 32.1637 24.9795C33.6222 26.1276 35.2949 28.5571 35.8761 30.3478ZM29.9836 27.2498C29.3097 26.7938 28.4805 26.3356 28.1261 26.2068C27.4902 25.9681 27.4805 26.0033 27.1672 27.4323C26.3996 30.8766 28.6312 34.7514 32.1922 36.1186C32.7917 36.3481 32.7917 36.3481 33.0598 35.5113C33.2083 35.04 33.2757 33.8686 33.2028 32.9254C33.0672 30.6454 31.8292 28.4784 29.9836 27.2498ZM21.7973 26.6948C18.7561 28.1969 17.097 31.6953 17.7765 35.1905C17.9966 36.379 18.0694 36.3977 19.3932 35.832C22.2154 34.6322 24.2043 31.0676 23.8309 27.8774C23.6501 26.1895 23.2652 25.9586 21.7973 26.6948Z" fill="white"/>
<path d="M40.1465 22.6979C41.8775 22.311 43.9281 21.2794 45.2331 20.1187C46.3782 19.1387 50 15.7747 50 15.1815C50 14.5625 45.0067 13.0537 43.3422 12.7424C42.5697 12.5979 41.1585 12.2781 40.2797 12.1234L38.6818 11.8655L39.2677 10.1632C40.1998 7.53249 42.2504 1.8215 41.1052 0.0934757C40.6791 -0.499728 34.9002 1.88416 32.7963 2.91582C29.2011 4.69543 26.5646 8.77048 26.5646 12.5876C26.5646 16.6627 29.5473 20.8409 33.4887 22.2852C35.2464 22.93 38.2557 23.1105 40.1465 22.6979ZM34.4208 19.3192C33.6751 18.9839 32.8496 18.5197 32.5566 18.2875C32.024 17.8749 32.0506 17.8491 33.1692 16.869C35.8589 14.4962 40.4395 14.4188 43.4488 16.7143C43.9548 17.1011 43.9548 17.1011 43.3422 17.7459C42.996 18.107 41.9841 18.7518 41.1052 19.1645C39.0014 20.1961 36.4448 20.2477 34.4208 19.3192ZM29.8136 12.7424C29.6272 9.44106 31.9175 6.2945 35.3795 5.10809C36.5513 4.69543 36.6046 4.74701 36.7644 6.13975C37.1106 9.10577 34.9268 12.5618 31.8909 13.8514C30.293 14.5478 29.8935 14.3414 29.8136 12.7424Z" fill="white"/>
</svg>
