<svg data-v-423bf9ae="" xmlns="http://www.w3.org/2000/svg" viewBox="0 0 320 90" class="iconLeftSlogan"><!----><!----><!----><g data-v-423bf9ae="" id="0032158e-d4e5-4533-bf7c-278872d2cbc2" fill="white" transform="matrix(4.222378595280017,0,0,4.222378595280017,127.62242541721942,-5.911329098257653)"><path d="M7.91 10.88L7.91 10.88Q8.22 10.88 8.43 11.09L8.43 11.09L8.43 11.09Q8.64 11.30 8.64 11.61L8.64 11.61L8.64 11.61Q8.64 11.91 8.43 12.12L8.43 12.12L8.43 12.12Q8.22 12.33 7.91 12.33L7.91 12.33L2.11 12.33L2.11 12.33Q1.81 12.33 1.60 12.12L1.60 12.12L1.60 12.12Q1.40 11.91 1.40 11.61L1.40 11.61L1.40 2.13L1.40 2.13Q1.40 1.82 1.61 1.61L1.61 1.61L1.61 1.61Q1.82 1.40 2.11 1.40L2.11 1.40L2.11 1.40Q2.42 1.40 2.63 1.61L2.63 1.61L2.63 1.61Q2.84 1.82 2.84 2.13L2.84 2.13L2.84 10.88L7.91 10.88ZM17.12 8.39L17.12 8.39Q17.12 8.65 16.94 8.83L16.94 8.83L16.94 8.83Q16.76 9.00 16.48 9.00L16.48 9.00L11.16 9.00L11.16 9.00Q11.31 9.98 12.05 10.58L12.05 10.58L12.05 10.58Q12.78 11.19 13.85 11.19L13.85 11.19L13.85 11.19Q14.27 11.19 14.72 11.03L14.72 11.03L14.72 11.03Q15.18 10.88 15.47 10.65L15.47 10.65L15.47 10.65Q15.67 10.50 15.93 10.50L15.93 10.50L15.93 10.50Q16.20 10.50 16.35 10.64L16.35 10.64L16.35 10.64Q16.60 10.85 16.60 11.12L16.60 11.12L16.60 11.12Q16.60 11.37 16.38 11.54L16.38 11.54L16.38 11.54Q15.90 11.91 15.20 12.15L15.20 12.15L15.20 12.15Q14.49 12.39 13.85 12.39L13.85 12.39L13.85 12.39Q12.70 12.39 11.79 11.89L11.79 11.89L11.79 11.89Q10.88 11.40 10.37 10.51L10.37 10.51L10.37 10.51Q9.86 9.63 9.86 8.51L9.86 8.51L9.86 8.51Q9.86 7.39 10.34 6.50L10.34 6.50L10.34 6.50Q10.82 5.61 11.68 5.12L11.68 5.12L11.68 5.12Q12.54 4.62 13.64 4.62L13.64 4.62L13.64 4.62Q14.71 4.62 15.50 5.10L15.50 5.10L15.50 5.10Q16.28 5.57 16.70 6.43L16.70 6.43L16.70 6.43Q17.12 7.28 17.12 8.39L17.12 8.39ZM13.64 5.82L13.64 5.82Q12.61 5.82 11.98 6.38L11.98 6.38L11.98 6.38Q11.34 6.94 11.17 7.88L11.17 7.88L15.83 7.88L15.83 7.88Q15.71 6.94 15.13 6.38L15.13 6.38L15.13 6.38Q14.56 5.82 13.64 5.82L13.64 5.82ZM22.41 4.62L22.41 4.62Q23.49 4.62 24.37 5.13L24.37 5.13L24.37 5.13Q25.24 5.64 25.75 6.53L25.75 6.53L25.75 6.53Q26.26 7.42 26.26 8.51L26.26 8.51L26.26 14.90L26.26 14.90Q26.26 15.22 26.07 15.41L26.07 15.41L26.07 15.41Q25.87 15.61 25.55 15.61L25.55 15.61L25.55 15.61Q25.24 15.61 25.04 15.41L25.04 15.41L25.04 15.41Q24.84 15.22 24.84 14.90L24.84 14.90L24.84 11.12L24.84 11.12Q24.35 11.72 23.65 12.05L23.65 12.05L23.65 12.05Q22.95 12.39 22.13 12.39L22.13 12.39L22.13 12.39Q21.13 12.39 20.31 11.89L20.31 11.89L20.31 11.89Q19.49 11.38 19.02 10.49L19.02 10.49L19.02 10.49Q18.55 9.60 18.55 8.51L18.55 8.51L18.55 8.51Q18.55 7.42 19.05 6.53L19.05 6.53L19.05 6.53Q19.56 5.64 20.45 5.13L20.45 5.13L20.45 5.13Q21.34 4.62 22.41 4.62L22.41 4.62ZM22.41 11.13L22.41 11.13Q23.11 11.13 23.68 10.79L23.68 10.79L23.68 10.79Q24.25 10.44 24.57 9.85L24.57 9.85L24.57 9.85Q24.89 9.25 24.89 8.51L24.89 8.51L24.89 8.51Q24.89 7.77 24.57 7.17L24.57 7.17L24.57 7.17Q24.25 6.57 23.68 6.22L23.68 6.22L23.68 6.22Q23.11 5.88 22.41 5.88L22.41 5.88L22.41 5.88Q21.71 5.88 21.15 6.22L21.15 6.22L21.15 6.22Q20.58 6.57 20.25 7.17L20.25 7.17L20.25 7.17Q19.92 7.77 19.92 8.51L19.92 8.51L19.92 8.51Q19.92 9.25 20.25 9.85L20.25 9.85L20.25 9.85Q20.58 10.44 21.15 10.79L21.15 10.79L21.15 10.79Q21.71 11.13 22.41 11.13L22.41 11.13ZM32.26 4.62L32.26 4.62Q33.33 4.62 34.21 5.13L34.21 5.13L34.21 5.13Q35.08 5.64 35.59 6.53L35.59 6.53L35.59 6.53Q36.11 7.42 36.11 8.51L36.11 8.51L36.11 11.63L36.11 11.63Q36.11 11.94 35.90 12.14L35.90 12.14L35.90 12.14Q35.70 12.35 35.39 12.35L35.39 12.35L35.39 12.35Q35.08 12.35 34.88 12.14L34.88 12.14L34.88 12.14Q34.68 11.94 34.68 11.63L34.68 11.63L34.68 11.12L34.68 11.12Q34.19 11.72 33.49 12.05L33.49 12.05L33.49 12.05Q32.79 12.39 31.98 12.39L31.98 12.39L31.98 12.39Q30.97 12.39 30.15 11.89L30.15 11.89L30.15 11.89Q29.33 11.38 28.86 10.49L28.86 10.49L28.86 10.49Q28.39 9.60 28.39 8.51L28.39 8.51L28.39 8.51Q28.39 7.42 28.90 6.53L28.90 6.53L28.90 6.53Q29.40 5.64 30.29 5.13L30.29 5.13L30.29 5.13Q31.18 4.62 32.26 4.62L32.26 4.62ZM32.26 11.13L32.26 11.13Q32.96 11.13 33.52 10.79L33.52 10.79L33.52 10.79Q34.09 10.44 34.41 9.85L34.41 9.85L34.41 9.85Q34.73 9.25 34.73 8.51L34.73 8.51L34.73 8.51Q34.73 7.77 34.41 7.17L34.41 7.17L34.41 7.17Q34.09 6.57 33.52 6.22L33.52 6.22L33.52 6.22Q32.96 5.88 32.26 5.88L32.26 5.88L32.26 5.88Q31.56 5.88 30.99 6.22L30.99 6.22L30.99 6.22Q30.42 6.57 30.09 7.17L30.09 7.17L30.09 7.17Q29.76 7.77 29.76 8.51L29.76 8.51L29.76 8.51Q29.76 9.25 30.09 9.85L30.09 9.85L30.09 9.85Q30.42 10.44 30.99 10.79L30.99 10.79L30.99 10.79Q31.56 11.13 32.26 11.13L32.26 11.13ZM41.71 4.62L41.71 4.62Q42.78 4.62 43.66 5.13L43.66 5.13L43.66 5.13Q44.53 5.64 45.05 6.53L45.05 6.53L45.05 6.53Q45.56 7.42 45.56 8.51L45.56 8.51L45.56 11.63L45.56 11.63Q45.56 11.94 45.35 12.14L45.35 12.14L45.35 12.14Q45.15 12.35 44.84 12.35L44.84 12.35L44.84 12.35Q44.53 12.35 44.33 12.14L44.33 12.14L44.33 12.14Q44.13 11.94 44.13 11.63L44.13 11.63L44.13 11.12L44.13 11.12Q43.64 11.72 42.94 12.05L42.94 12.05L42.94 12.05Q42.24 12.39 41.43 12.39L41.43 12.39L41.43 12.39Q40.42 12.39 39.60 11.89L39.60 11.89L39.60 11.89Q38.78 11.38 38.31 10.49L38.31 10.49L38.31 10.49Q37.84 9.60 37.84 8.51L37.84 8.51L37.84 8.51Q37.84 7.42 38.35 6.53L38.35 6.53L38.35 6.53Q38.85 5.64 39.74 5.13L39.74 5.13L39.74 5.13Q40.63 4.62 41.71 4.62L41.71 4.62ZM41.71 11.13L41.71 11.13Q42.41 11.13 42.97 10.79L42.97 10.79L42.97 10.79Q43.54 10.44 43.86 9.85L43.86 9.85L43.86 9.85Q44.18 9.25 44.18 8.51L44.18 8.51L44.18 8.51Q44.18 7.77 43.86 7.17L43.86 7.17L43.86 7.17Q43.54 6.57 42.97 6.22L42.97 6.22L42.97 6.22Q42.41 5.88 41.71 5.88L41.71 5.88L41.71 5.88Q41.01 5.88 40.44 6.22L40.44 6.22L40.44 6.22Q39.87 6.57 39.54 7.17L39.54 7.17L39.54 7.17Q39.21 7.77 39.21 8.51L39.21 8.51L39.21 8.51Q39.21 9.25 39.54 9.85L39.54 9.85L39.54 9.85Q39.87 10.44 40.44 10.79L40.44 10.79L40.44 10.79Q41.01 11.13 41.71 11.13L41.71 11.13Z"></path></g><!----><g data-v-423bf9ae="" id="53e2d066-7ee5-4d66-8740-fce80a7f740e" transform="matrix(1.2384241033128702,0,0,1.2384241033128702,-4.7928197831728525,-16.299074746831636)" stroke="none" fill="white"><path d="M61.58 47.513c4.583-3.373 7.559-8.945 7.559-15.072 0-10.235-8.297-18.604-18.532-18.604s-18.532 8.262-18.532 18.497c0 6.127 2.976 11.824 7.559 15.197C29.149 51.783 21.766 62.51 21.766 74.51c0 16 57.683 16 57.683 0-.001-11.999-7.385-22.745-17.869-26.997z"></path><path d="M82.841 47.976a13.685 13.685 0 0 0 5.557-11.023c0-7.525-6.1-13.648-13.625-13.648-1.69 0-3.307.31-4.8.871a20.98 20.98 0 0 1 1.66 8.201 21.245 21.245 0 0 1-5.621 14.375c9.789 5.473 15.931 15.89 15.931 27.504 0 .458-.037.942-.121 1.442 7.795-.98 14.157-3.643 14.157-7.99 0-9.353-5.429-16.605-13.138-19.732zM19.27 74.256c0-11.401 5.927-21.646 15.413-27.193.145-.133.286-.271.425-.409a21.355 21.355 0 0 1-5.529-14.335c0-2.76.541-5.395 1.514-7.812a13.532 13.532 0 0 0-5.585-1.202c-7.525 0-13.625 6.089-13.625 13.614 0 4.506 2.188 8.584 5.557 11.063C9.732 51.109 4.303 58.355 4.303 67.708c0 4.522 6.885 7.222 15.106 8.1a8.76 8.76 0 0 1-.139-1.552z"></path></g><!----><g data-v-423bf9ae="" id="677ccf3a-6a95-4712-b819-f354634060cc" fill="white" transform="matrix(1.2651021585755782,0,0,1.2651021585755782,131.7626229105391,58.228858619229115)"><path d="M5.47 1.40L5.47 1.40Q6.41 1.40 7.14 1.77L7.14 1.77L7.14 1.77Q7.87 2.14 8.28 2.81L8.28 2.81L8.28 2.81Q8.69 3.47 8.69 4.31L8.69 4.31L8.69 4.31Q8.69 5.00 8.32 5.54L8.32 5.54L8.32 5.54Q7.95 6.09 7.31 6.43L7.31 6.43L7.31 6.43Q8.26 6.65 8.81 7.32L8.81 7.32L8.81 7.32Q9.35 7.99 9.35 9.03L9.35 9.03L9.35 9.03Q9.35 9.98 8.90 10.74L8.90 10.74L8.90 10.74Q8.44 11.49 7.62 11.91L7.62 11.91L7.62 11.91Q6.80 12.33 5.77 12.33L5.77 12.33L2.13 12.33L2.13 12.33Q1.82 12.33 1.61 12.12L1.61 12.12L1.61 12.12Q1.40 11.91 1.40 11.61L1.40 11.61L1.40 2.13L1.40 2.13Q1.40 1.81 1.61 1.60L1.61 1.60L1.61 1.60Q1.82 1.40 2.13 1.40L2.13 1.40L5.47 1.40ZM5.47 5.89L5.47 5.89Q6.30 5.89 6.80 5.49L6.80 5.49L6.80 5.49Q7.29 5.08 7.29 4.31L7.29 4.31L7.29 4.31Q7.29 3.54 6.80 3.14L6.80 3.14L6.80 3.14Q6.30 2.74 5.47 2.74L5.47 2.74L2.86 2.74L2.86 5.89L5.47 5.89ZM5.77 10.99L5.77 10.99Q6.75 10.99 7.35 10.48L7.35 10.48L7.35 10.48Q7.95 9.97 7.95 9.03L7.95 9.03L7.95 9.03Q7.95 8.16 7.36 7.70L7.36 7.70L7.36 7.70Q6.76 7.24 5.77 7.24L5.77 7.24L2.86 7.24L2.86 10.99L5.77 10.99ZM18.26 8.39L18.26 8.39Q18.26 8.65 18.07 8.83L18.07 8.83L18.07 8.83Q17.89 9.00 17.61 9.00L17.61 9.00L12.29 9.00L12.29 9.00Q12.45 9.98 13.18 10.58L13.18 10.58L13.18 10.58Q13.92 11.19 14.98 11.19L14.98 11.19L14.98 11.19Q15.40 11.19 15.86 11.03L15.86 11.03L15.86 11.03Q16.31 10.88 16.60 10.65L16.60 10.65L16.60 10.65Q16.80 10.50 17.07 10.50L17.07 10.50L17.07 10.50Q17.33 10.50 17.49 10.64L17.49 10.64L17.49 10.64Q17.74 10.85 17.74 11.12L17.74 11.12L17.74 11.12Q17.74 11.37 17.51 11.54L17.51 11.54L17.51 11.54Q17.04 11.91 16.33 12.15L16.33 12.15L16.33 12.15Q15.62 12.39 14.98 12.39L14.98 12.39L14.98 12.39Q13.83 12.39 12.92 11.89L12.92 11.89L12.92 11.89Q12.01 11.40 11.50 10.51L11.50 10.51L11.50 10.51Q10.99 9.63 10.99 8.51L10.99 8.51L10.99 8.51Q10.99 7.39 11.47 6.50L11.47 6.50L11.47 6.50Q11.96 5.61 12.82 5.12L12.82 5.12L12.82 5.12Q13.68 4.62 14.77 4.62L14.77 4.62L14.77 4.62Q15.85 4.62 16.63 5.10L16.63 5.10L16.63 5.10Q17.42 5.57 17.84 6.43L17.84 6.43L17.84 6.43Q18.26 7.28 18.26 8.39L18.26 8.39ZM14.77 5.82L14.77 5.82Q13.75 5.82 13.11 6.38L13.11 6.38L13.11 6.38Q12.47 6.94 12.31 7.88L12.31 7.88L16.97 7.88L16.97 7.88Q16.84 6.94 16.27 6.38L16.27 6.38L16.27 6.38Q15.69 5.82 14.77 5.82L14.77 5.82ZM24.32 5.39L24.32 5.39Q24.32 5.07 24.52 4.87L24.52 4.87L24.52 4.87Q24.72 4.68 25.03 4.68L25.03 4.68L25.03 4.68Q25.35 4.68 25.55 4.87L25.55 4.87L25.55 4.87Q25.75 5.07 25.75 5.39L25.75 5.39L25.75 11.62L25.75 11.62Q25.75 11.93 25.55 12.13L25.55 12.13L25.55 12.13Q25.35 12.33 25.03 12.33L25.03 12.33L25.03 12.33Q24.72 12.33 24.52 12.13L24.52 12.13L24.52 12.13Q24.32 11.93 24.32 11.62L24.32 11.62L24.32 5.39ZM25.03 1.58L25.03 1.58Q25.41 1.58 25.68 1.85L25.68 1.85L25.68 1.85Q25.96 2.13 25.96 2.51L25.96 2.51L25.96 2.51Q25.96 2.88 25.68 3.16L25.68 3.16L25.68 3.16Q25.41 3.43 25.03 3.43L25.03 3.43L25.03 3.43Q24.65 3.43 24.38 3.16L24.38 3.16L24.38 3.16Q24.11 2.88 24.11 2.51L24.11 2.51L24.11 2.51Q24.11 2.13 24.38 1.85L24.38 1.85L24.38 1.85Q24.65 1.58 25.03 1.58L25.03 1.58ZM32.21 4.61L32.21 4.61Q33.18 4.61 33.95 5.03L33.95 5.03L33.95 5.03Q34.72 5.45 35.15 6.25L35.15 6.25L35.15 6.25Q35.59 7.06 35.59 8.19L35.59 8.19L35.59 11.63L35.59 11.63Q35.59 11.94 35.39 12.14L35.39 12.14L35.39 12.14Q35.18 12.35 34.87 12.35L34.87 12.35L34.87 12.35Q34.57 12.35 34.36 12.14L34.36 12.14L34.36 12.14Q34.16 11.94 34.16 11.63L34.16 11.63L34.16 8.19L34.16 8.19Q34.16 7.06 33.55 6.47L33.55 6.47L33.55 6.47Q32.94 5.89 31.93 5.89L31.93 5.89L31.93 5.89Q31.35 5.89 30.86 6.13L30.86 6.13L30.86 6.13Q30.38 6.37 30.11 6.78L30.11 6.78L30.11 6.78Q29.83 7.18 29.83 7.69L29.83 7.69L29.83 11.63L29.83 11.63Q29.83 11.94 29.64 12.14L29.64 12.14L29.64 12.14Q29.44 12.35 29.12 12.35L29.12 12.35L29.12 12.35Q28.81 12.35 28.61 12.14L28.61 12.14L28.61 12.14Q28.41 11.94 28.41 11.63L28.41 11.63L28.41 5.39L28.41 5.39Q28.41 5.07 28.61 4.87L28.61 4.87L28.61 4.87Q28.81 4.68 29.12 4.68L29.12 4.68L29.12 4.68Q29.44 4.68 29.64 4.87L29.64 4.87L29.64 4.87Q29.83 5.07 29.83 5.39L29.83 5.39L29.83 5.54L29.83 5.54Q30.28 5.10 30.90 4.85L30.90 4.85L30.90 4.85Q31.51 4.61 32.21 4.61L32.21 4.61ZM45.32 10.93L45.32 10.93Q45.57 10.93 45.75 11.13L45.75 11.13L45.75 11.13Q45.92 11.33 45.92 11.63L45.92 11.63L45.92 11.63Q45.92 11.94 45.69 12.14L45.69 12.14L45.69 12.14Q45.46 12.33 45.09 12.33L45.09 12.33L44.84 12.33L44.84 12.33Q44.16 12.33 43.59 11.98L43.59 11.98L43.59 11.98Q43.02 11.62 42.70 11.00L42.70 11.00L42.70 11.00Q42.38 10.39 42.38 9.62L42.38 9.62L42.38 6.16L41.73 6.16L41.73 6.16Q41.44 6.16 41.26 5.99L41.26 5.99L41.26 5.99Q41.08 5.82 41.08 5.57L41.08 5.57L41.08 5.57Q41.08 5.29 41.26 5.12L41.26 5.12L41.26 5.12Q41.44 4.96 41.73 4.96L41.73 4.96L42.38 4.96L42.38 2.94L42.38 2.94Q42.38 2.63 42.57 2.44L42.57 2.44L42.57 2.44Q42.77 2.24 43.08 2.24L43.08 2.24L43.08 2.24Q43.39 2.24 43.58 2.44L43.58 2.44L43.58 2.44Q43.78 2.63 43.78 2.94L43.78 2.94L43.78 4.96L44.97 4.96L44.97 4.96Q45.26 4.96 45.44 5.12L45.44 5.12L45.44 5.12Q45.63 5.29 45.63 5.57L45.63 5.57L45.63 5.57Q45.63 5.82 45.44 5.99L45.44 5.99L45.44 5.99Q45.26 6.16 44.97 6.16L44.97 6.16L43.78 6.16L43.78 9.62L43.78 9.62Q43.78 10.18 44.09 10.56L44.09 10.56L44.09 10.56Q44.39 10.93 44.84 10.93L44.84 10.93L45.32 10.93ZM51.14 4.62L51.14 4.62Q52.25 4.62 53.12 5.12L53.12 5.12L53.12 5.12Q54.00 5.61 54.50 6.50L54.50 6.50L54.50 6.50Q54.99 7.38 54.99 8.51L54.99 8.51L54.99 8.51Q54.99 9.63 54.50 10.51L54.50 10.51L54.50 10.51Q54.01 11.40 53.14 11.89L53.14 11.89L53.14 11.89Q52.26 12.39 51.14 12.39L51.14 12.39L51.14 12.39Q50.02 12.39 49.14 11.89L49.14 11.89L49.14 11.89Q48.26 11.40 47.77 10.51L47.77 10.51L47.77 10.51Q47.28 9.63 47.28 8.51L47.28 8.51L47.28 8.51Q47.28 7.38 47.77 6.50L47.77 6.50L47.77 6.50Q48.26 5.61 49.14 5.12L49.14 5.12L49.14 5.12Q50.02 4.62 51.14 4.62L51.14 4.62ZM51.14 5.88L51.14 5.88Q50.43 5.88 49.86 6.22L49.86 6.22L49.86 6.22Q49.29 6.55 48.97 7.15L48.97 7.15L48.97 7.15Q48.65 7.76 48.65 8.51L48.65 8.51L48.65 8.51Q48.65 9.27 48.97 9.86L48.97 9.86L48.97 9.86Q49.29 10.46 49.86 10.79L49.86 10.79L49.86 10.79Q50.43 11.13 51.14 11.13L51.14 11.13L51.14 11.13Q51.86 11.13 52.42 10.79L52.42 10.79L52.42 10.79Q52.99 10.46 53.31 9.86L53.31 9.86L53.31 9.86Q53.62 9.27 53.62 8.51L53.62 8.51L53.62 8.51Q53.62 7.76 53.31 7.15L53.31 7.15L53.31 7.15Q52.99 6.55 52.42 6.22L52.42 6.22L52.42 6.22Q51.86 5.88 51.14 5.88L51.14 5.88ZM63.43 4.66L63.43 4.66Q63.76 4.66 63.95 4.86L63.95 4.86L63.95 4.86Q64.15 5.05 64.15 5.38L64.15 5.38L64.15 11.62L64.15 11.62Q64.15 11.93 63.95 12.13L63.95 12.13L63.95 12.13Q63.76 12.33 63.43 12.33L63.43 12.33L63.43 12.33Q63.13 12.33 62.92 12.13L62.92 12.13L62.92 12.13Q62.72 11.93 62.72 11.62L62.72 11.62L62.72 11.47L62.72 11.47Q62.27 11.91 61.66 12.16L61.66 12.16L61.66 12.16Q61.04 12.40 60.34 12.40L60.34 12.40L60.34 12.40Q59.37 12.40 58.60 11.98L58.60 11.98L58.60 11.98Q57.83 11.56 57.40 10.76L57.40 10.76L57.40 10.76Q56.97 9.95 56.97 8.82L56.97 8.82L56.97 5.38L56.97 5.38Q56.97 5.07 57.17 4.86L57.17 4.86L57.17 4.86Q57.37 4.66 57.68 4.66L57.68 4.66L57.68 4.66Q57.99 4.66 58.19 4.86L58.19 4.86L58.19 4.86Q58.39 5.07 58.39 5.38L58.39 5.38L58.39 8.82L58.39 8.82Q58.39 9.95 59.00 10.54L59.00 10.54L59.00 10.54Q59.61 11.12 60.62 11.12L60.62 11.12L60.62 11.12Q61.21 11.12 61.69 10.88L61.69 10.88L61.69 10.88Q62.17 10.64 62.45 10.23L62.45 10.23L62.45 10.23Q62.72 9.83 62.72 9.32L62.72 9.32L62.72 5.38L62.72 5.38Q62.72 5.05 62.92 4.86L62.92 4.86L62.92 4.86Q63.13 4.66 63.43 4.66L63.43 4.66ZM70.07 4.62L70.07 4.62Q71.72 4.62 72.81 5.88L72.81 5.88L72.81 5.88Q72.95 6.03 72.95 6.24L72.95 6.24L72.95 6.24Q72.95 6.55 72.65 6.76L72.65 6.76L72.65 6.76Q72.51 6.86 72.32 6.86L72.32 6.86L72.32 6.86Q72.00 6.86 71.78 6.61L71.78 6.61L71.78 6.61Q71.43 6.23 71.02 6.05L71.02 6.05L71.02 6.05Q70.60 5.88 70.07 5.88L70.07 5.88L70.07 5.88Q68.99 5.88 68.32 6.60L68.32 6.60L68.32 6.60Q67.65 7.32 67.65 8.51L67.65 8.51L67.65 8.51Q67.65 9.27 67.96 9.86L67.96 9.86L67.96 9.86Q68.28 10.46 68.84 10.79L68.84 10.79L68.84 10.79Q69.41 11.13 70.14 11.13L70.14 11.13L70.14 11.13Q71.09 11.13 71.68 10.64L71.68 10.64L71.68 10.64Q71.95 10.44 72.20 10.44L72.20 10.44L72.20 10.44Q72.39 10.44 72.56 10.57L72.56 10.57L72.56 10.57Q72.83 10.79 72.83 11.07L72.83 11.07L72.83 11.07Q72.83 11.28 72.66 11.45L72.66 11.45L72.66 11.45Q71.65 12.39 70.14 12.39L70.14 12.39L70.14 12.39Q69.03 12.39 68.15 11.89L68.15 11.89L68.15 11.89Q67.27 11.38 66.77 10.49L66.77 10.49L66.77 10.49Q66.28 9.60 66.28 8.51L66.28 8.51L66.28 8.51Q66.28 7.39 66.76 6.50L66.76 6.50L66.76 6.50Q67.24 5.61 68.11 5.12L68.11 5.12L68.11 5.12Q68.98 4.62 70.07 4.62L70.07 4.62ZM78.89 4.61L78.89 4.61Q79.86 4.61 80.63 5.03L80.63 5.03L80.63 5.03Q81.40 5.45 81.83 6.25L81.83 6.25L81.83 6.25Q82.26 7.06 82.26 8.19L82.26 8.19L82.26 11.63L82.26 11.63Q82.26 11.94 82.06 12.14L82.06 12.14L82.06 12.14Q81.86 12.35 81.55 12.35L81.55 12.35L81.55 12.35Q81.24 12.35 81.04 12.14L81.04 12.14L81.04 12.14Q80.84 11.94 80.84 11.63L80.84 11.63L80.84 8.19L80.84 8.19Q80.84 7.06 80.23 6.47L80.23 6.47L80.23 6.47Q79.62 5.89 78.61 5.89L78.61 5.89L78.61 5.89Q78.02 5.89 77.54 6.13L77.54 6.13L77.54 6.13Q77.06 6.37 76.78 6.78L76.78 6.78L76.78 6.78Q76.51 7.18 76.51 7.69L76.51 7.69L76.51 11.63L76.51 11.63Q76.51 11.94 76.31 12.14L76.31 12.14L76.31 12.14Q76.12 12.35 75.80 12.35L75.80 12.35L75.80 12.35Q75.49 12.35 75.28 12.14L75.28 12.14L75.28 12.14Q75.08 11.94 75.08 11.63L75.08 11.63L75.08 2.11L75.08 2.11Q75.08 1.79 75.28 1.60L75.28 1.60L75.28 1.60Q75.49 1.40 75.80 1.40L75.80 1.40L75.80 1.40Q76.12 1.40 76.31 1.60L76.31 1.60L76.31 1.60Q76.51 1.79 76.51 2.11L76.51 2.11L76.51 5.54L76.51 5.54Q76.96 5.10 77.57 4.85L77.57 4.85L77.57 4.85Q78.19 4.61 78.89 4.61L78.89 4.61ZM92.55 4.61L92.55 4.61Q93.52 4.61 94.29 5.03L94.29 5.03L94.29 5.03Q95.06 5.45 95.49 6.25L95.49 6.25L95.49 6.25Q95.93 7.06 95.93 8.19L95.93 8.19L95.93 11.63L95.93 11.63Q95.93 11.94 95.73 12.14L95.73 12.14L95.73 12.14Q95.52 12.35 95.21 12.35L95.21 12.35L95.21 12.35Q94.91 12.35 94.70 12.14L94.70 12.14L94.70 12.14Q94.50 11.94 94.50 11.63L94.50 11.63L94.50 8.19L94.50 8.19Q94.50 7.06 93.89 6.47L93.89 6.47L93.89 6.47Q93.28 5.89 92.27 5.89L92.27 5.89L92.27 5.89Q91.69 5.89 91.20 6.13L91.20 6.13L91.20 6.13Q90.72 6.37 90.45 6.78L90.45 6.78L90.45 6.78Q90.17 7.18 90.17 7.69L90.17 7.69L90.17 11.63L90.17 11.63Q90.17 11.94 89.98 12.14L89.98 12.14L89.98 12.14Q89.78 12.35 89.46 12.35L89.46 12.35L89.46 12.35Q89.15 12.35 88.95 12.14L88.95 12.14L88.95 12.14Q88.75 11.94 88.75 11.63L88.75 11.63L88.75 5.39L88.75 5.39Q88.75 5.07 88.95 4.87L88.95 4.87L88.95 4.87Q89.15 4.68 89.46 4.68L89.46 4.68L89.46 4.68Q89.78 4.68 89.98 4.87L89.98 4.87L89.98 4.87Q90.17 5.07 90.17 5.39L90.17 5.39L90.17 5.54L90.17 5.54Q90.62 5.10 91.24 4.85L91.24 4.85L91.24 4.85Q91.85 4.61 92.55 4.61L92.55 4.61ZM101.77 4.62L101.77 4.62Q102.87 4.62 103.75 5.12L103.75 5.12L103.75 5.12Q104.62 5.61 105.12 6.50L105.12 6.50L105.12 6.50Q105.62 7.38 105.62 8.51L105.62 8.51L105.62 8.51Q105.62 9.63 105.13 10.51L105.13 10.51L105.13 10.51Q104.64 11.40 103.76 11.89L103.76 11.89L103.76 11.89Q102.89 12.39 101.77 12.39L101.77 12.39L101.77 12.39Q100.65 12.39 99.76 11.89L99.76 11.89L99.76 11.89Q98.88 11.40 98.39 10.51L98.39 10.51L98.39 10.51Q97.90 9.63 97.90 8.51L97.90 8.51L97.90 8.51Q97.90 7.38 98.39 6.50L98.39 6.50L98.39 6.50Q98.88 5.61 99.76 5.12L99.76 5.12L99.76 5.12Q100.65 4.62 101.77 4.62L101.77 4.62ZM101.77 5.88L101.77 5.88Q101.05 5.88 100.48 6.22L100.48 6.22L100.48 6.22Q99.92 6.55 99.60 7.15L99.60 7.15L99.60 7.15Q99.27 7.76 99.27 8.51L99.27 8.51L99.27 8.51Q99.27 9.27 99.60 9.86L99.60 9.86L99.60 9.86Q99.92 10.46 100.48 10.79L100.48 10.79L100.48 10.79Q101.05 11.13 101.77 11.13L101.77 11.13L101.77 11.13Q102.48 11.13 103.05 10.79L103.05 10.79L103.05 10.79Q103.61 10.46 103.93 9.86L103.93 9.86L103.93 9.86Q104.24 9.27 104.24 8.51L104.24 8.51L104.24 8.51Q104.24 7.76 103.93 7.15L103.93 7.15L103.93 7.15Q103.61 6.55 103.05 6.22L103.05 6.22L103.05 6.22Q102.48 5.88 101.77 5.88L101.77 5.88ZM115.88 4.68L115.88 4.68Q116.17 4.68 116.32 4.83L116.32 4.83L116.32 4.83Q116.47 4.98 116.47 5.25L116.47 5.25L116.47 5.25Q116.47 5.47 116.40 5.66L116.40 5.66L114.32 11.87L114.32 11.87Q114.25 12.07 114.07 12.20L114.07 12.20L114.07 12.20Q113.89 12.33 113.67 12.33L113.67 12.33L113.67 12.33Q113.43 12.33 113.24 12.20L113.24 12.20L113.24 12.20Q113.05 12.07 112.99 11.87L112.99 11.87L111.62 6.79L110.18 11.87L110.18 11.87Q110.11 12.07 109.92 12.20L109.92 12.20L109.92 12.20Q109.73 12.33 109.51 12.33L109.51 12.33L109.51 12.33Q109.28 12.33 109.10 12.20L109.10 12.20L109.10 12.20Q108.91 12.07 108.84 11.87L108.84 11.87L106.76 5.66L106.76 5.66Q106.71 5.47 106.71 5.26L106.71 5.26L106.71 5.26Q106.71 4.68 107.30 4.68L107.30 4.68L107.30 4.68Q107.56 4.68 107.74 4.83L107.74 4.83L107.74 4.83Q107.91 4.98 108.02 5.32L108.02 5.32L109.54 10.04L110.96 5.21L110.96 5.21Q111.03 4.97 111.21 4.82L111.21 4.82L111.21 4.82Q111.38 4.68 111.66 4.68L111.66 4.68L111.66 4.68Q111.93 4.68 112.11 4.82L112.11 4.82L112.11 4.82Q112.28 4.97 112.35 5.21L112.35 5.21L113.61 10.14L115.15 5.32L115.15 5.32Q115.35 4.68 115.88 4.68L115.88 4.68ZM117.63 2.13L117.63 2.13Q117.63 1.82 117.83 1.61L117.83 1.61L117.83 1.61Q118.03 1.40 118.34 1.40L118.34 1.40L118.34 1.40Q118.65 1.40 118.85 1.61L118.85 1.61L118.85 1.61Q119.06 1.82 119.06 2.13L119.06 2.13L119.06 9.03L119.06 9.03Q119.06 9.32 118.84 9.53L118.84 9.53L118.84 9.53Q118.62 9.74 118.34 9.74L118.34 9.74L118.34 9.74Q118.05 9.74 117.84 9.53L117.84 9.53L117.84 9.53Q117.63 9.32 117.63 9.03L117.63 9.03L117.63 2.13ZM118.34 10.39L118.34 10.39Q118.73 10.39 119.02 10.67L119.02 10.67L119.02 10.67Q119.31 10.96 119.31 11.37L119.31 11.37L119.31 11.37Q119.31 11.77 119.02 12.05L119.02 12.05L119.02 12.05Q118.73 12.33 118.34 12.33L118.34 12.33L118.34 12.33Q117.95 12.33 117.66 12.05L117.66 12.05L117.66 12.05Q117.38 11.77 117.38 11.37L117.38 11.37L117.38 11.37Q117.38 10.96 117.66 10.67L117.66 10.67L117.66 10.67Q117.95 10.39 118.34 10.39L118.34 10.39Z"></path></g></svg>