<svg id="a04021cf-e398-43db-8b10-1415a6cee3ca" data-name="Layer 1" xmlns="http://www.w3.org/2000/svg" width="865.76" height="682.89" viewBox="0 0 865.76 682.89"><path d="M312.24,616.82H228.85c-10,.2-5.75-16.5-6.59-22.26a6.59,6.59,0,0,1,6.59-6.59h83.39Z" fill="#fff"/><rect x="223.65" y="596.96" width="88.59" height="1.59" fill="#e4e4e4"/><rect x="223.65" y="601.62" width="88.59" height="1.59" fill="#e4e4e4"/><rect x="223.65" y="610.94" width="88.59" height="1.59" fill="#e4e4e4"/><rect x="223.65" y="592.3" width="88.59" height="1.59" fill="#e4e4e4"/><rect x="223.65" y="606.28" width="88.59" height="1.59" fill="#e4e4e4"/><path d="M312.24,618.22H229c-11.48.09-7.53-16.54-8.16-23.49a8.17,8.17,0,0,1,8.16-8.16h83.22v2.8H229c-8.54-.23-4.49,15.76-5.37,20.69a5.38,5.38,0,0,0,5.37,5.36h83.22Z" fill="#bcbec0"/><polygon points="305.87 612.36 300.26 606.76 294.65 612.36 294.65 596.96 305.87 596.96 305.87 612.36" fill="#d1d3d4"/><path d="M301.47,647.06H218.08c-10,.2-5.75-16.5-6.59-22.25a6.59,6.59,0,0,1,6.59-6.6h83.39Z" fill="#fff"/><rect x="212.88" y="627.21" width="88.59" height="1.59" fill="#e4e4e4"/><rect x="212.88" y="631.87" width="88.59" height="1.59" fill="#e4e4e4"/><rect x="212.88" y="641.19" width="88.59" height="1.59" fill="#e4e4e4"/><rect x="212.88" y="622.55" width="88.59" height="1.59" fill="#e4e4e4"/><rect x="212.88" y="636.53" width="88.59" height="1.59" fill="#e4e4e4"/><path d="M301.47,648.46H218.25c-11.47.1-7.53-16.53-8.16-23.49a8.17,8.17,0,0,1,8.16-8.15h83.22v2.79H218.25c-8.54-.23-4.49,15.77-5.37,20.69a5.38,5.38,0,0,0,5.37,5.37h83.22Z" fill="#bcbec0"/><polygon points="295.1 642.6 289.49 637.01 283.88 642.6 283.88 627.21 295.1 627.21 295.1 642.6" fill="#d1d3d4"/><rect x="284.16" y="415.28" width="272.9" height="181.4" fill="#2f2e41"/><rect x="300.66" y="425.87" width="239.91" height="154.02" fill="#e4e4e4"/><rect x="400.26" y="590.48" width="40.7" height="50.4" fill="#032631"/><rect x="383.73" y="640.35" width="73.76" height="4.02" fill="#032631"/><rect x="322.21" y="443.21" width="61.19" height="61.34" fill="#fff"/><path d="M342,477.92h21.5a5.64,5.64,0,0,1,5.64,5.64v21.25a0,0,0,0,1,0,0H336.41a0,0,0,0,1,0,0V483.56A5.64,5.64,0,0,1,342,477.92Z" fill="#e4e4e4"/><ellipse cx="352.8" cy="464.21" rx="10.09" ry="10.11" fill="#e4e4e4"/><rect x="390.15" y="443.21" width="61.19" height="61.34" fill="#fff"/><path d="M410,477.92h21.5a5.64,5.64,0,0,1,5.64,5.64v21.25a0,0,0,0,1,0,0H404.35a0,0,0,0,1,0,0V483.56A5.64,5.64,0,0,1,410,477.92Z" fill="#e4e4e4"/><ellipse cx="420.74" cy="464.21" rx="10.09" ry="10.11" fill="#e4e4e4"/><rect x="458.09" y="443.21" width="61.19" height="61.34" fill="#fff"/><path d="M477.94,477.92h21.5a5.64,5.64,0,0,1,5.64,5.64v21.25a0,0,0,0,1,0,0H472.3a0,0,0,0,1,0,0V483.56A5.64,5.64,0,0,1,477.94,477.92Z" fill="#e4e4e4"/><ellipse cx="488.69" cy="464.21" rx="10.09" ry="10.11" fill="#e4e4e4"/><rect x="322.21" y="510.72" width="61.19" height="61.34" fill="#fff"/><path d="M342,545.44h21.5a5.64,5.64,0,0,1,5.64,5.64v21.25a0,0,0,0,1,0,0H336.41a0,0,0,0,1,0,0V551.08A5.64,5.64,0,0,1,342,545.44Z" fill="#00516e"/><ellipse cx="352.8" cy="531.72" rx="10.09" ry="10.11" fill="#00516e"/><rect x="390.15" y="510.72" width="61.19" height="61.34" fill="#fff"/><path d="M410,545.44h21.5a5.64,5.64,0,0,1,5.64,5.64v21.25a0,0,0,0,1,0,0H404.35a0,0,0,0,1,0,0V551.08A5.64,5.64,0,0,1,410,545.44Z" fill="#00516e"/><ellipse cx="420.74" cy="531.72" rx="10.09" ry="10.11" fill="#00516e"/><rect x="458.09" y="510.72" width="61.19" height="61.34" fill="#fff"/><path d="M477.94,545.44h21.5a5.64,5.64,0,0,1,5.64,5.64v21.25a0,0,0,0,1,0,0H472.3a0,0,0,0,1,0,0V551.08A5.64,5.64,0,0,1,477.94,545.44Z" fill="#00516e"/><ellipse cx="488.69" cy="531.72" rx="10.09" ry="10.11" fill="#00516e"/><rect x="194.09" y="649.24" width="477.58" height="15.44" fill="#d1d3d4"/><path d="M410.76,501.55A22.18,22.18,0,0,0,455,499.62v-4.31h0l0-8.47,0-5.23-.13-23.73-39.7-1.55-2,19-1.43,13.46-.88,8.61A21.34,21.34,0,0,0,410.76,501.55Z" fill="#f9b499"/><path d="M652.37,274V367.9A8.24,8.24,0,0,1,644,376l-84.86-.18H544.44l-20.71.18a8.24,8.24,0,0,1-8.41-8.06V274a8.23,8.23,0,0,1,8.41-8.05H644A8.24,8.24,0,0,1,652.37,274Z" fill="#fff" stroke="#2f2e41" stroke-miterlimit="10"/><rect x="523.04" y="273.79" width="119.72" height="91.95" rx="5.33" fill="#e4e4e4"/><rect x="523.04" y="298.19" width="119.72" height="25.22" fill="#d1d3d4"/><path d="M624.08,365.67H610.76V351.31l10.41,2.41A92,92,0,0,1,624.08,365.67Z" fill="#f9b499"/><path d="M560.14,351.31v14.36H547.57c.41-3.32.81-5.91,1.18-8Z" fill="#f9b499"/><path d="M610.83,344.44c0,5.67,0,15.53,0,21.23H560.05V351.29c-1-9.14,2-19.12,11.61-22C585.53,326.12,609.48,325.36,610.83,344.44Z" fill="#905BD4"/><path d="M585.9,336.12c8.24,0,11.7-6.9,11.43-7.23-7.41-1.62-11-1-17.22-1.12,0,0-2.47.37-5.64.94C574.47,328.71,577.67,336.16,585.9,336.12Z" fill="#f9b499"/><path d="M579.4,329c.74,7.75,13,6.91,12.56-1-.11-3.14-.34-8.67-.46-11.86l-11.29-.07C580,319.93,579.36,325.14,579.4,329Z" fill="#f9b499"/><path d="M557.12,314.35l-.13-.1h0Z" fill="#002e3b"/><path d="M568.45,297.6c3.7,23.69,31.07,25.06,35.36,1.43,2.15-.55-.06-13.83-9-15.64-11.91-5.15-18.2.28-21.9,4.17a30.27,30.27,0,0,0-1.82,2.67C568.75,292.15,567.52,294.5,568.45,297.6Z" fill="#2f2e41"/><path d="M599.43,306.14c7.32-9.12,9.76,9.53.24,6.76C596.41,311.59,599.43,306.14,599.43,306.14Z" fill="#f9b499"/><path d="M573.16,305.64c-7-9.4-10.11,9.16-.5,6.75C576,311.2,573.16,305.64,573.16,305.64Z" fill="#f9b499"/><path d="M586,323.41c12.27-.13,13.1-11.46,13.92-20.91a13.6,13.6,0,1,0-27-.52C573.31,311.46,573.7,322.82,586,323.41Z" fill="#f9b499"/><path d="M573.21,305.64c.92-4.4.92-17.33,11.5-14.3,7.35,2.91,16.29,4.54,14.81,14.11,0,0,3.85-6.62,1.86-10.44s-4.66-9-8.68-10.17-18,4.2-18,4.2A24.65,24.65,0,0,0,573.21,305.64Z" fill="#2f2e41"/><path d="M574.56,297.43a15.51,15.51,0,0,1,14.5-4.52S579.07,282.44,574.56,297.43Z" fill="#2f2e41"/><path d="M599.81,300.18s-1.65,5.23-.51,9.59C599.34,310,603.4,298.08,599.81,300.18Z" fill="#2f2e41"/><path d="M573.06,299.67s1.45,5.29.14,9.6C573.16,309.49,569.55,297.43,573.06,299.67Z" fill="#2f2e41"/><path d="M571.66,329.25s-16.32,0-27.08,28.43L560.05,365S570.78,335.63,571.66,329.25Z" fill="#905BD4"/><path d="M599,329.25s17.25,2,26.18,27.33l-14.32,9.09S599.85,335.63,599,329.25Z" fill="#905BD4"/><path d="M627.68,288.93H616.86c-5.85-.05-9.63,5.36-8.92,10.91.23,9.36,9.2,9.17,16.42,9v3.8l3.93-3.88C639.59,308.22,639.39,288.75,627.68,288.93Z" fill="#fff"/><line x1="511.41" y1="415.24" x2="530.91" y2="377.77" fill="none" stroke="#2f2e41" stroke-linecap="round" stroke-linejoin="round" stroke-dasharray="4"/><path d="M638.84,106.51v111.2c0,5.26-4.53,9.53-10.13,9.53L526.47,227H508.8l-24.95.21c-5.6,0-10.13-4.27-10.13-9.53V106.51c0-5.27,4.53-9.54,10.13-9.54H628.71C634.31,97,638.84,101.24,638.84,106.51Z" fill="#fff" stroke="#2f2e41" stroke-miterlimit="10"/><path d="M489.44,106.43H620.83a6.43,6.43,0,0,1,6.43,6.43v97.93a6.43,6.43,0,0,1-6.43,6.43H489.44a6.42,6.42,0,0,1-6.42-6.42V112.86a6.43,6.43,0,0,1,6.43-6.43Z" fill="#e4e4e4"/><rect x="483.02" y="135.83" width="144.25" height="5.44" fill="#d1d3d4"/><rect x="483.02" y="158.16" width="144.25" height="5.44" fill="#d1d3d4"/><path d="M604.87,217.14H588.79V199.79s12.56,2.91,12.56,2.92A108.34,108.34,0,0,1,604.87,217.14Z" fill="#f2b5aa"/><path d="M527.65,199.79v17.35H512.46c.5-4,1-7.14,1.42-9.63Z" fill="#f2b5aa"/><path d="M588.8,191.56c0,6.83,0,18.72,0,25.58H527.62V199.82c-1.2-11,2.42-23,14-26.5C558.31,169.49,587.17,168.57,588.8,191.56Z" fill="#905BD4"/><path d="M558.76,181.45c10,0,14.13-8.34,13.8-8.73-8.95-2-13.32-1.24-20.79-1.36,0,0-3,.45-6.82,1.14C545,172.5,548.82,181.49,558.76,181.45Z" fill="#f9b499"/><path d="M550.9,172.81c.91,9.35,15.68,8.34,15.17-1.17-.13-3.79-.4-10.46-.55-14.32l-13.64-.08C551.65,161.9,550.86,168.18,550.9,172.81Z" fill="#f9b499"/><path d="M524.09,155.31l-.17-.13h0Z" fill="#002e3b"/><path d="M537.73,135.13c4.46,28.53,37.44,30.18,42.61,1.71,2.58-.65-.07-16.66-10.89-18.84-14.36-6.2-21.93.34-26.39,5,0,0-1.54,2-2.19,3.22C538.1,128.56,536.61,131.39,537.73,135.13Z" fill="#2f2e41"/><path d="M575.06,145.42c8.82-11,11.76,11.48.29,8.14C571.42,152,575.06,145.42,575.06,145.42Z" fill="#f9b499"/><path d="M543.4,144.81c-8.39-11.32-12.18,11-.59,8.13C546.79,151.51,543.4,144.81,543.4,144.81Z" fill="#f9b499"/><path d="M558.83,166.22c14.79-.16,15.78-13.8,16.78-25.19a16.39,16.39,0,1,0-32.59-.62C543.59,151.82,544.06,165.51,558.83,166.22Z" fill="#f9b499"/><path d="M543.47,144.82c1.11-5.31,1.1-20.88,13.85-17.24,8.86,3.51,19.63,5.48,17.85,17,0,0,4.64-8,2.24-12.57s-5.62-10.85-10.46-12.26-21.66,5.07-21.66,5.07A29.63,29.63,0,0,0,543.47,144.82Z" fill="#2f2e41"/><path d="M545.09,134.92a18.71,18.71,0,0,1,17.48-5.45S550.52,116.85,545.09,134.92Z" fill="#2f2e41"/><path d="M575.52,138.23s-2,6.3-.62,11.56C575,150.05,579.84,135.7,575.52,138.23Z" fill="#2f2e41"/><path d="M543.28,137.62s1.75,6.37.18,11.57C543.41,149.44,539.06,134.92,543.28,137.62Z" fill="#2f2e41"/><path d="M541.6,173.26s-19.66,0-32.63,34.25l18.65,8.83S540.54,180.94,541.6,173.26Z" fill="#905BD4"/><path d="M574.52,173.26s20.78,2.38,31.54,32.92l-17.26,11S575.57,180.94,574.52,173.26Z" fill="#905BD4"/><path d="M609.09,148.57c-8.93-.07-23.45,2.35-23.78-10.75-.85-6.68,3.7-13.21,10.75-13.14h13C623.46,124.46,623.46,148.79,609.09,148.57Z" fill="#fff"/><polygon points="605.1 147.33 605.1 153.22 613.02 145.41 605.1 147.33" fill="#fff"/><line x1="513.13" y1="228.76" x2="475.32" y2="351.27" fill="none" stroke="#2f2e41" stroke-linecap="round" stroke-linejoin="round" stroke-dasharray="4"/><line x1="327.74" y1="415.21" x2="298.38" y2="351.27" fill="none" stroke="#2f2e41" stroke-linecap="round" stroke-linejoin="round" stroke-dasharray="4"/><path d="M398.5,214.24V339.51c0,5.94-5.15,10.75-11.5,10.75L270.91,350H250.86l-28.33.24c-6.35,0-11.5-4.81-11.5-10.75V214.24c0-5.94,5.15-10.75,11.5-10.75H387C393.35,203.49,398.5,208.3,398.5,214.24Z" fill="#fff" stroke="#2f2e41" stroke-miterlimit="10"/><path d="M228.88,214.23H378.06a7.3,7.3,0,0,1,7.3,7.3V332.72a7.3,7.3,0,0,1-7.3,7.3H228.88a7.29,7.29,0,0,1-7.29-7.29V221.53A7.3,7.3,0,0,1,228.88,214.23Z" fill="#e4e4e4"/><rect x="221.58" y="265.94" width="163.77" height="20.97" fill="#d1d3d4"/><rect x="221.58" y="315.72" width="163.77" height="6.17" fill="#fff"/><path d="M359.93,339.93H341.67v-19.7l14.27,3.31A123.33,123.33,0,0,1,359.93,339.93Z" fill="#f9b499"/><path d="M272.26,320.23v19.7H255c.56-4.55,1.1-8.11,1.61-10.94Z" fill="#f9b499"/><path d="M341.69,310.88c0,7.76,0,21.25,0,29.05H272.22V320.26c-1.36-12.51,2.76-26.15,15.88-30.09C307.07,285.83,339.83,284.78,341.69,310.88Z" fill="#905BD4"/><path d="M307.58,299.4c11.3,0,16-9.46,15.67-9.91-10.16-2.22-15.13-1.41-23.61-1.54,0,0-3.4.51-7.74,1.3C291.9,289.25,296.29,299.45,307.58,299.4Z" fill="#f9b499"/><path d="M298.66,289.59c1,10.62,17.8,9.48,17.22-1.32-.15-4.31-.46-11.88-.62-16.26l-15.49-.09C299.51,277.21,298.61,284.34,298.66,289.59Z" fill="#f9b499"/><path d="M268.21,269.73l-.19-.15h0Z" fill="#f58300" opacity="0.5"/><path d="M283.7,246.81c5.07,32.4,30,33.41,47.42,5.54,6.49-10.39-20-45.1-43.86-15.63C284.68,239.91,282.44,242.57,283.7,246.81Z" fill="#2f2e41"/><path d="M326.09,258.49c10-12.48,13.34,13,.33,9.25C322,266,326.09,258.49,326.09,258.49Z" fill="#f9b499"/><path d="M290.14,257.81c-9.53-12.86-13.83,12.52-.67,9.22C294,265.42,290.14,257.81,290.14,257.81Z" fill="#f9b499"/><path d="M307.66,282.11c16.79-.17,17.91-15.67,19-28.6a18.6,18.6,0,1,0-37-.7C290.36,265.77,290.89,281.3,307.66,282.11Z" fill="#f9b499"/><path d="M290.26,257.85c1.26-6,1.26-23.71,15.73-19.57,10.06,4,22.28,6.22,20.26,19.31,0,0,5.27-9.06,2.56-14.28s-6.39-12.32-11.89-13.92-24.59,5.75-24.59,5.75A33.72,33.72,0,0,0,290.26,257.85Z" fill="#2f2e41"/><path d="M326.61,250.34s-2.26,7.15-.71,13.12C326,263.75,331.52,247.46,326.61,250.34Z" fill="#2f2e41"/><path d="M290,249.64s2,7.24.2,13.14C290.15,263.07,285.21,246.58,290,249.64Z" fill="#2f2e41"/><path d="M288.1,290.11s-22.33,0-37.05,38.88l21.17,10S286.9,298.83,288.1,290.11Z" fill="#905BD4"/><path d="M325.47,290.11s23.6,2.7,35.82,37.38l-19.6,12.44S326.67,298.83,325.47,290.11Z" fill="#905BD4"/><path d="M295.57,240.29s7.61,4.89,13.77,5.51,1.86-4.21,1.86-4.21,6,6.11,9.88,6.11,1.21-4.19,1.21-4.19-14-9.62-16.07-9.47S295.56,233.64,295.57,240.29Z" fill="#2f2e41"/><path d="M364.73,235h-14.8c-8-.07-13.17,7.33-12.21,14.92.33,12.8,12.59,12.54,22.47,12.28v5.2l5.36-5.28C381,261.39,380.76,234.71,364.73,235Z" fill="#fff"/><path d="M436.43,28V139.75c0,5.3-4.6,9.59-10.27,9.59H279.44c-5.67,0-10.27-4.29-10.27-9.59V28c0-5.3,4.6-9.59,10.27-9.59H426.16C431.83,18.39,436.43,22.68,436.43,28Z" fill="#fff" stroke="#2f2e41" stroke-miterlimit="10"/><rect x="279.73" y="27.94" width="146.14" height="112.24" rx="6.51" fill="#e4e4e4"/><rect x="279.73" y="57.73" width="146.14" height="34.01" fill="#d1d3d4"/><rect x="279.73" y="80.35" width="146.14" height="34.01" fill="#fff"/><polygon points="313.16 140.19 306.54 140.19 307.24 135.36 313.16 140.19" fill="#f9b499"/><path d="M367.37,62.7s2,24.24-1.59,36.13l-40.88,2.74c1.74-18.88,2.75-43.43,2.75-43.43Z" fill="#2f2e41"/><path d="M332,65.16c-.1,8.09-2.21,29.84-4.59,33.67h34.86s4.85-11,3-23.26S332.06,60.72,332,65.16Z" fill="#2f2e41"/><path d="M375.78,116.64c-.34,5.68-1.07,18-1.4,23.55H322c.45-13.42-5.49-40.1,11.94-44.33,4.36-1.68,14.73-.86,19.44-1C365.2,94.61,375.68,104.78,375.78,116.64Z" fill="#905BD4"/><path d="M347.19,106.81c-12.27-1-13.27-11-13.27-11,7-2.15,22.2-1.46,26.51.15C360.43,95.93,359.46,107.8,347.19,106.81Z" fill="#f9b499"/><path d="M339.59,95.34c.87,8.94,15,8,14.5-1.12-.12-3.62-.38-10-.52-13.69l-13-.08C340.31,84.91,339.55,90.92,339.59,95.34Z" fill="#f9b499"/><path d="M367.37,62.7c-.55,26.32-39.32,25.5-39.95-.27,0-5.6.54-9.54,6.63-14C340.56,33.83,368.21,43.57,367.37,62.7Z" fill="#2f2e41"/><path d="M362.69,70.86c8.51-10.52,11.14,11.06.27,7.79C359.21,77.14,362.69,70.86,362.69,70.86Z" fill="#f9b499"/><path d="M332.42,70.29c-8.1-10.84-11.55,10.62-.57,7.76C335.66,76.69,332.42,70.29,332.42,70.29Z" fill="#f9b499"/><path d="M347.17,90.75c14.14-.15,15.09-13.19,16-24.08a15.66,15.66,0,1,0-31.15-.6C332.6,77,333.06,90.07,347.17,90.75Z" fill="#f9b499"/><path d="M335,55.56a12.68,12.68,0,0,0,10.79,7.55c1.88-.11,3.11-1.08.65-4.33,4.64,3.21,14.34,7.69,10.26-3.71,0,0,4.14,12.65,6.65,10.4s-1.41-12.8-9.23-15.35S337.13,48.56,335,55.56Z" fill="#2f2e41"/><path d="M331.53,64.69s2.05,5.6.4,9C325.72,67.82,330,57.75,331.53,64.69Z" fill="#2f2e41"/><path d="M362.76,67.07s-1.4,5.13.25,8.5C368.68,68.78,364.74,59.5,362.76,67.07Z" fill="#2f2e41"/><path d="M335,55.56a16.79,16.79,0,0,1-3,9.1C329.94,67.37,329.2,55.54,335,55.56Z" fill="#2f2e41"/><path d="M333.58,96.32c-1.15,9.76-7.78,31.44-11.17,43.87h-9.25c-1.84-1.51-6.86-5.59-8.63-7C310.54,119.52,316.81,99.65,333.58,96.32Z" fill="#905BD4"/><polygon points="381.68 140.19 388.31 140.19 387.6 135.36 381.68 140.19" fill="#f9b499"/><path d="M361.26,96.32c1.16,9.76,7.78,31.44,11.17,43.87h9.25l8.63-7C384.3,119.52,378,99.65,361.26,96.32Z" fill="#905BD4"/><path d="M310.56,67.85c-10.24.15-24.05,1.86-23.47-12.8.35-13.09,14.3-11.28,23.47-11.18C325.36,43.64,325.37,68.07,310.56,67.85Z" fill="#fff"/><polygon points="296.2 66.16 306.95 72.41 302.82 62.41 296.2 66.16" fill="#fff"/><line x1="407.17" y1="148.87" x2="407.39" y2="150.86" fill="none" stroke="#2f2e41" stroke-linecap="round" stroke-linejoin="round"/><line x1="407.85" y1="154.87" x2="428.46" y2="337.41" fill="none" stroke="#2f2e41" stroke-linecap="round" stroke-linejoin="round" stroke-dasharray="4.04 4.04"/><line x1="428.69" y1="339.42" x2="428.91" y2="341.4" fill="none" stroke="#2f2e41" stroke-linecap="round" stroke-linejoin="round"/><path d="M563.38,601.21l2.1,3.32a26.84,26.84,0,0,1-8.09,36.85h0a26.84,26.84,0,0,1-31.72-1.88l-11-9.11Z" fill="#f2b5aa"/><path d="M565.82,632.64c27-34.7,10.09-168.41,10.09-168.41H544.77L523.15,627.3S559.73,640.46,565.82,632.64Z" fill="#f9b499"/><path d="M480.49,425.81c7.24-13.58,16.8-14.2,21.13,1.83S493,456.91,482.2,452.07,480.49,425.81,480.49,425.81Z" fill="#f9b499"/><path d="M385.74,425.8c-7.24-13.57-16.78-14.19-21.11,1.83S373.2,456.87,384,452,385.74,425.8,385.74,425.8Z" fill="#f9b499"/><path d="M525.42,665H335.59l1.65-31.93V633l.1-2.1h0l2.9-56.27.73-14.14a59.37,59.37,0,0,1,40.77-53.15c1.76-.57,3.58-1.07,5.44-1.48s3.67-.77,5.49-1.11h.12c8.6-1.56,15.42-2.33,18-2.61h0L412,502h36.29s2.47.23,6.55.76,10,1.41,16.55,2.71l.57.12h0a53.77,53.77,0,0,1,6.46,1.7h0a59.29,59.29,0,0,1,40.79,53.14l.75,12.64,1.43,24.34.75,12.59s0,0,0,0l.9,15.33.11,1.73v.21h0l.27,4.44.37,6.2h0L525,657.11Z" fill="#905BD4"/><path d="M375.9,400.35c8.86,34.89.49,84.14,54.38,85.61,59.41,1.62,55.81-49.66,61.77-83.35,7.14-2,16.95-6.93,11.39-11.1s-16.6-13.67-16.6-13.67c14.41-4.67,16.64-22.78,9.05-19.12s-17.31.18-35.7-7.64l-.05,0c-36.46-15.89-60.39,2.81-69.22,11.89-.47.48-3.63,4.15-3.74,4.29l-.05.08a106.93,106.93,0,0,0-5.79,9.05,58,58,0,0,0-4.44,11.37C375.5,392.86,374.53,394.94,375.9,400.35Z" fill="#2f2e41"/><path d="M434.65,488.73h0a43.9,43.9,0,0,0,43.2-39.3l3.32-35.24a47.57,47.57,0,0,0-47.86-52h0a47.56,47.56,0,0,0-46.74,53l4.05,35.17A43.91,43.91,0,0,0,434.65,488.73Z" fill="#2f2e41"/><path d="M443,488.73h0a43.9,43.9,0,0,0,43.2-39.3l3.32-35.24a47.57,47.57,0,0,0-47.86-52h0a47.56,47.56,0,0,0-46.74,53L399,450.35A43.91,43.91,0,0,0,443,488.73Z" fill="#2f2e41"/><path d="M383.68,386.09s-1.37-9.39-15.65-14.71S371.09,399.56,383.68,386.09Z" fill="#2f2e41"/><path d="M376.14,375.69s-6-22.55,2.2-28.3,14.27,22,4.32,32.56S376.14,375.69,376.14,375.69Z" fill="#2f2e41"/><path d="M381.76,507.16S323.17,512.71,280.48,604L341,632.64S378.68,529.54,381.76,507.16Z" fill="#905BD4"/><path d="M477.63,507.16s58.74,8.1,91.9,89.35L519.19,635S480.71,529.54,477.63,507.16Z" fill="#905BD4"/><path d="M392.67,504.74s45.27-11.76,79.27.84C471.94,505.58,432.38,543.18,392.67,504.74Z" fill="#f9b499"/><path d="M548.24,421.11s1.82-17,4-28.46c1-5.45,8-5.08,8.61-.44,1-7,7.31-5.5,8.93-3.34a5.34,5.34,0,0,1,1,3.67,3.86,3.86,0,0,1,5.66-1.53c3.45,2.42,2.12,12.7,2.12,12.7s1.14-3.47,4.27-2.84c2.65.54,3.75,3.31,3.48,10.78s-2,18.88-1.47,25.42,2.32,20.66-10.72,33.58c-11.57,11.46-33.12,3.15-35.31-13.17-1.33-9.88-1.89-14-1.15-23.35.81-10.32.58-21.34,4.95-21.79,3.93-.41,4.84,3.05,5.19,5.43Z" fill="#f9b499"/><path d="M291.29,609.09h0a23.21,23.21,0,0,0,20.93,33.39l24.51-.07.63-11.51Z" fill="#f9b499"/><path d="M549,650.63A48.34,48.34,0,0,1,546.81,665H314.89a48.26,48.26,0,0,1-2-10.43l-.32-3.94q0-4.11.27-8.15A118.3,118.3,0,0,1,370,549.26a118.32,118.32,0,0,1,119-1.54,118.43,118.43,0,0,1,25.4,19.33c2,2,3.83,4,5.64,6a119.25,119.25,0,0,1,8.82,11.51A117.56,117.56,0,0,1,543,613.43c.3.9.59,1.8.85,2.71a115.73,115.73,0,0,1,4,17.94q.76,5.37,1,10.92C548.93,646.86,549,648.75,549,650.63Z" fill="#2f2e41"/><path d="M549,650.63A48.34,48.34,0,0,1,546.81,665H520.14a48.55,48.55,0,0,0,9.29-22.89,60.8,60.8,0,0,0,.37-12.62c0-.7-.1-1.42-.18-2.14l0-.3c-.17-1.76-.4-3.5-.67-5.19a88.94,88.94,0,0,0-3.23-13.71h0a80.2,80.2,0,0,0-4.27-10.71,86.43,86.43,0,0,0-26.5-31.62h0c-36.13-27.16-87.06-28.31-87.06-28.31q2.68-2,5.36-3.77a118.06,118.06,0,0,1,101.14,33.32c2,2,3.83,4,5.64,6a119.25,119.25,0,0,1,8.82,11.51A117.56,117.56,0,0,1,543,613.43c.3.9.59,1.8.85,2.71a115.73,115.73,0,0,1,4,17.94q.76,5.37,1,10.92C548.93,646.86,549,648.75,549,650.63Z" opacity="0.2"/><path d="M627.29,612.83H626V608.7H585.84v17.39a20.07,20.07,0,0,0,19.55,20.06h.51a19.9,19.9,0,0,0,10.25-2.82,20.3,20.3,0,0,0,7.22-7.39h3.92a11.56,11.56,0,0,0,0-23.12Zm0,18.14h-1.94a20.14,20.14,0,0,0,.62-4.88V617.8h1.32a6.59,6.59,0,0,1,0,13.17Z" fill="#d1d3d4"/><path d="M580.49,643.06h52.43a0,0,0,0,1,0,0v4.06a2.13,2.13,0,0,1-2.13,2.13H582.63a2.13,2.13,0,0,1-2.13-2.13v-4.06A0,0,0,0,1,580.49,643.06Z" fill="#bcbec0"/><path d="M619,608.7h-5.27l8.6-15.77a2.31,2.31,0,0,1,2-1.21h0a2.31,2.31,0,0,1,2,3.42Z" fill="#fff"/><rect x="597.78" y="608.7" width="1.16" height="13.07" fill="#fff"/><rect x="593.27" y="616.68" width="10.18" height="10.18" fill="#fff"/><rect x="291.93" y="51.23" width="23.61" height="1.48" fill="#d1d3d4"/><rect x="291.93" y="54.08" width="23.61" height="1.48" fill="#d1d3d4"/><rect x="291.93" y="56.55" width="23.61" height="1.48" fill="#d1d3d4"/><rect x="590.45" y="133.29" width="23.61" height="1.48" fill="#d1d3d4"/><rect x="590.45" y="136.13" width="23.61" height="1.48" fill="#d1d3d4"/><rect x="590.45" y="138.6" width="23.61" height="1.48" fill="#d1d3d4"/><rect x="345.48" y="244.3" width="23.61" height="1.48" fill="#d1d3d4"/><rect x="345.48" y="247.14" width="23.61" height="1.48" fill="#d1d3d4"/><rect x="345.48" y="249.61" width="23.61" height="1.48" fill="#d1d3d4"/><rect x="610.43" y="294.79" width="23.61" height="1.48" fill="#d1d3d4"/><rect x="610.43" y="297.63" width="23.61" height="1.48" fill="#d1d3d4"/><rect x="610.43" y="300.1" width="23.61" height="1.48" fill="#d1d3d4"/></svg>